{"glyphs":{"0":{"ha":872,"x_min":60,"x_max":813,"o":"m 436 983 q 600 947 529 983 q 718 844 671 911 q 813 485 813 714 q 718 124 813 254 q 436 -14 618 -14 q 154 124 254 -14 q 60 485 60 254 q 154 844 60 714 q 436 983 253 983 m 436 103 q 622 206 558 103 q 686 485 686 307 q 622 763 686 661 q 435 865 558 865 q 249 763 313 865 q 186 485 186 660 q 250 206 186 307 q 436 103 314 103 z "},"1":{"ha":872,"x_min":178,"x_max":735,"o":"m 675 118 q 717 101 700 118 q 735 58 735 83 q 717 17 735 33 q 675 0 700 0 l 246 0 q 204 17 221 0 q 188 58 188 33 q 204 101 188 83 q 246 118 221 118 l 411 118 l 411 822 l 269 753 q 256 747 263 750 q 230 744 249 744 q 194 761 211 744 q 178 810 178 778 q 214 861 178 843 l 403 960 q 442 969 422 969 l 471 969 q 518 950 499 969 q 538 903 538 931 l 538 118 l 675 118 z "},"2":{"ha":872,"x_min":90,"x_max":768,"o":"m 700 118 q 742 101 725 118 q 760 58 760 83 q 742 17 760 33 q 700 0 725 0 l 164 0 q 111 20 132 0 q 90 72 90 40 q 131 204 90 146 q 234 313 172 263 q 368 407 296 363 q 502 496 440 451 q 605 588 564 540 q 646 682 646 635 q 634 760 646 729 q 597 814 622 792 q 426 864 542 864 q 189 814 303 864 q 157 807 175 807 q 124 822 139 807 q 110 867 110 838 q 140 913 110 896 q 449 983 282 983 q 675 906 585 983 q 768 701 768 826 q 642 458 768 575 q 520 364 586 408 q 393 278 454 319 q 283 198 332 238 q 217 118 235 158 l 700 118 z "},"3":{"ha":872,"x_min":82,"x_max":768,"o":"m 733 733 q 565 501 733 565 q 747 363 697 469 q 768 253 768 318 q 740 138 768 188 q 664 54 713 88 q 408 -14 565 -14 q 118 42 256 -14 q 82 94 82 58 q 97 135 82 117 q 131 153 113 153 q 178 142 150 153 q 385 107 264 107 q 619 186 558 107 q 642 261 642 215 q 335 436 642 436 l 313 436 q 272 453 289 436 q 254 494 254 471 q 272 535 254 518 q 313 553 289 553 l 321 553 q 607 721 607 553 q 553 826 607 786 q 388 865 500 865 q 172 819 274 865 q 144 814 161 814 q 111 828 126 814 q 96 869 96 842 q 124 913 96 897 q 407 983 254 983 q 647 918 560 983 q 733 733 733 853 z "},"4":{"ha":872,"x_min":35,"x_max":828,"o":"m 771 357 q 811 340 794 357 q 828 300 828 324 q 811 260 828 276 q 771 244 794 244 l 665 244 l 665 56 q 647 11 665 29 q 601 -7 628 -7 q 557 11 575 -7 q 539 56 539 29 l 539 244 l 115 244 q 58 267 82 244 q 35 324 35 290 l 35 336 q 51 386 35 365 l 488 943 q 557 976 511 976 l 585 976 q 643 953 621 976 q 665 896 665 929 l 665 357 l 771 357 m 539 357 l 539 833 l 169 357 l 539 357 z "},"5":{"ha":872,"x_min":89,"x_max":793,"o":"m 235 557 q 469 614 339 614 q 711 525 624 614 q 793 300 793 440 q 583 11 793 81 q 414 -14 511 -14 q 117 67 244 -14 q 89 112 89 83 q 104 158 89 140 q 140 176 119 176 q 189 161 160 176 q 396 111 285 111 q 647 213 594 111 q 667 307 667 250 q 609 443 667 393 q 467 493 551 493 q 238 433 338 493 q 179 417 208 417 q 124 438 150 417 q 97 497 97 460 q 100 531 97 517 l 163 900 q 187 951 167 932 q 236 969 207 969 l 682 969 q 724 952 707 969 q 742 910 742 935 q 724 868 742 885 q 682 851 707 851 l 279 851 l 235 557 z "},"6":{"ha":872,"x_min":82,"x_max":806,"o":"m 386 617 q 494 628 431 628 q 617 605 558 628 q 717 539 675 582 q 806 301 806 449 q 714 78 806 167 q 463 -14 619 -14 q 211 72 304 -14 q 86 381 101 176 q 82 500 82 436 q 102 653 82 564 q 169 815 122 742 q 292 935 215 888 q 471 983 369 983 q 631 965 572 983 q 731 924 689 946 q 760 879 760 907 q 744 834 760 851 q 709 817 729 817 q 667 828 689 817 q 498 861 592 861 q 349 823 404 861 q 261 731 293 785 q 203 506 211 640 q 386 617 264 586 m 353 125 q 456 104 399 104 q 553 120 514 104 q 621 164 593 136 q 679 309 679 222 q 628 454 679 396 q 472 513 576 513 q 292 457 364 513 q 210 360 242 419 q 353 125 235 179 z "},"7":{"ha":872,"x_min":83,"x_max":788,"o":"m 710 969 q 765 949 743 969 q 788 897 788 928 q 774 835 788 865 l 379 28 q 326 -7 360 -7 q 274 10 292 -7 q 257 50 257 28 q 265 89 257 72 l 647 849 l 143 849 q 101 866 118 849 q 83 908 83 883 q 101 951 83 933 q 143 969 118 969 l 710 969 z "},"8":{"ha":872,"x_min":65,"x_max":807,"o":"m 761 729 q 748 653 761 688 q 713 593 735 619 q 600 519 671 544 q 750 426 693 488 q 807 257 807 364 q 725 75 807 147 q 436 -14 625 -14 q 147 75 247 -14 q 65 256 65 147 q 122 426 65 364 q 272 519 179 488 q 125 653 161 558 q 111 729 111 688 q 128 815 111 771 q 183 897 144 860 q 436 983 271 983 q 689 897 601 983 q 761 729 761 826 m 436 97 q 628 161 563 97 q 681 264 681 210 q 660 353 681 318 q 606 411 640 388 q 437 458 539 458 q 267 411 335 458 q 192 271 192 360 q 244 161 192 210 q 436 97 310 97 m 436 572 q 592 624 539 572 q 635 724 635 665 q 586 828 635 783 q 436 872 538 872 q 286 828 335 872 q 238 724 238 783 q 285 619 238 665 q 436 572 333 572 z "},"9":{"ha":872,"x_min":67,"x_max":790,"o":"m 486 353 q 378 342 442 342 q 256 365 314 342 q 156 431 197 388 q 67 668 67 521 q 158 892 67 804 q 410 983 256 983 q 661 897 568 983 q 786 589 771 793 q 790 469 790 533 q 770 316 790 404 q 703 155 750 228 q 579 34 657 82 q 401 -14 501 -14 q 242 5 300 -14 q 142 46 183 24 q 113 90 113 63 q 128 135 113 118 q 163 153 143 153 q 206 142 182 153 q 375 108 283 108 q 523 147 467 108 q 611 239 579 185 q 669 464 661 329 q 486 353 608 383 m 519 844 q 416 865 474 865 q 319 849 358 865 q 251 806 279 833 q 193 660 193 747 q 244 515 193 574 q 400 457 296 457 q 581 513 508 457 q 663 610 631 550 q 519 844 638 790 z "}," ":{"ha":361,"x_min":0,"x_max":0,"o":""},"!":{"ha":390,"x_min":114,"x_max":279,"o":"m 196 268 q 149 308 151 268 l 124 767 l 124 904 q 144 956 124 935 q 196 976 165 976 q 247 956 226 976 q 267 904 267 935 l 267 767 l 242 308 q 196 268 239 268 m 114 77 q 114 94 114 77 q 138 135 114 111 q 197 160 163 160 q 255 135 231 160 q 279 77 279 111 q 255 19 279 43 q 197 -6 231 -6 q 138 19 163 -6 q 114 77 114 43 z "},"\"":{"ha":571,"x_min":83,"x_max":488,"o":"m 103 772 q 100 787 103 772 q 92 836 97 803 q 85 899 88 869 q 83 962 83 928 q 105 1017 83 996 q 154 1038 126 1038 q 203 1017 182 1038 q 225 962 225 996 q 223 899 225 928 q 216 836 221 869 q 205 772 211 803 q 194 722 199 740 q 154 683 188 683 q 127 694 138 683 q 113 722 117 704 q 103 772 110 740 m 366 772 q 363 787 366 772 q 355 836 360 803 q 348 899 350 869 q 346 962 346 928 q 367 1017 346 996 q 417 1038 389 1038 q 465 1017 444 1038 q 488 962 488 996 q 485 899 488 928 q 478 836 483 869 q 467 772 474 803 q 458 722 461 740 q 417 683 450 683 q 390 694 400 683 q 376 722 379 704 q 366 772 372 740 z "},"#":{"ha":850,"x_min":50,"x_max":799,"o":"m 221 -7 q 187 7 201 -7 q 172 33 172 21 q 206 253 172 46 l 99 253 q 65 267 79 253 q 50 301 50 282 q 65 335 50 321 q 99 350 79 350 l 221 350 l 254 561 l 147 561 q 113 576 128 561 q 99 610 99 590 q 113 644 99 629 q 147 658 128 658 l 269 658 l 304 878 q 320 905 307 893 q 354 917 333 917 q 388 903 375 917 q 401 878 401 889 q 401 862 401 867 q 397 837 400 857 q 388 775 394 817 l 368 658 l 544 658 l 579 878 q 595 905 582 893 q 629 917 608 917 q 663 903 650 917 q 676 878 676 889 q 676 862 676 867 q 672 837 675 857 q 663 775 669 817 l 643 658 l 750 658 q 784 644 769 658 q 799 610 799 629 q 784 576 799 590 q 750 561 769 561 l 628 561 l 594 350 l 701 350 q 735 335 721 350 q 750 301 750 321 q 735 267 750 282 q 701 253 721 253 l 579 253 l 544 33 q 528 6 542 18 q 496 -7 515 -7 q 462 7 476 -7 q 447 33 447 21 q 481 253 447 46 l 304 253 l 269 33 q 253 6 267 18 q 221 -7 240 -7 m 529 561 l 353 561 l 319 350 l 496 350 l 529 561 z "},"$":{"ha":850,"x_min":65,"x_max":790,"o":"m 464 538 q 581 506 522 524 q 686 457 639 488 q 790 257 790 388 q 701 69 790 144 q 464 -14 613 -6 l 464 -122 q 455 -144 464 -136 q 432 -153 446 -153 q 401 -122 401 -153 l 401 -14 q 104 53 244 -7 q 65 101 65 71 q 81 147 65 131 q 116 164 96 164 q 164 151 136 164 q 401 104 261 108 l 401 422 q 190 500 247 463 q 104 583 133 538 q 75 692 75 629 q 96 803 75 754 q 158 892 117 853 q 401 982 247 974 l 401 1090 q 410 1113 401 1104 q 432 1122 418 1122 q 455 1113 446 1122 q 464 1090 464 1104 l 464 983 q 711 938 604 978 q 750 882 750 924 q 735 843 750 861 q 703 825 721 825 q 657 836 686 825 q 464 868 572 865 l 464 538 m 200 708 q 322 575 200 617 q 401 553 360 563 l 401 865 q 257 817 314 857 q 200 708 200 778 m 464 106 q 650 196 607 115 q 665 260 665 225 q 649 317 665 296 q 606 356 633 339 q 464 407 565 381 l 464 106 z "},"%":{"ha":1131,"x_min":60,"x_max":1071,"o":"m 283 993 q 450 921 390 993 q 507 744 507 853 q 450 568 507 636 q 283 496 390 496 q 117 568 178 496 q 60 744 60 633 q 186 974 60 915 q 283 993 228 993 m 283 586 q 378 632 346 586 q 410 744 410 678 q 378 857 410 811 q 283 903 346 903 q 189 857 221 903 q 157 744 157 811 q 189 632 157 678 q 283 586 221 586 m 847 472 q 1014 400 954 472 q 1071 224 1071 332 q 1014 47 1071 115 q 847 -25 954 -25 q 681 47 742 -25 q 624 224 624 113 q 750 453 624 394 q 847 472 792 472 m 847 65 q 942 111 910 65 q 974 224 974 157 q 942 336 974 290 q 847 382 910 382 q 753 336 785 382 q 721 224 721 290 q 753 111 721 157 q 847 65 785 65 m 847 982 q 858 982 847 982 q 883 971 869 982 q 896 942 896 960 q 886 910 896 925 l 325 11 q 288 -14 310 -14 q 251 -1 265 -14 q 238 28 238 13 q 244 56 238 44 l 810 960 q 847 982 824 982 z "},"&":{"ha":1017,"x_min":99,"x_max":917,"o":"m 724 94 q 439 -14 597 -14 q 176 78 268 -14 q 99 272 99 156 q 156 446 99 367 q 256 539 200 506 q 195 628 219 583 q 171 731 171 674 q 189 833 171 789 q 240 911 207 878 q 431 983 313 983 q 615 922 524 983 q 640 885 640 908 q 626 847 640 861 q 597 832 613 832 q 560 843 581 832 q 450 875 500 875 q 372 864 400 875 q 325 835 344 853 q 288 757 288 799 q 295 692 288 715 q 319 644 303 668 q 426 532 343 608 l 717 258 q 755 326 740 294 q 784 368 769 358 q 820 378 799 378 q 858 362 842 378 q 875 326 875 346 q 801 179 875 282 l 894 90 q 917 47 917 71 q 902 6 917 24 q 861 -11 888 -11 q 817 6 835 -11 l 724 94 m 332 461 q 228 333 256 413 q 218 267 218 304 q 235 197 218 229 q 279 142 251 164 q 417 93 338 93 q 549 116 496 93 q 642 171 601 139 l 332 461 z "},"'":{"ha":331,"x_min":88,"x_max":265,"o":"m 188 1032 q 242 1009 219 1032 q 265 954 265 986 l 265 872 q 228 742 265 799 q 151 669 201 700 q 127 663 144 663 q 99 675 110 663 q 88 707 88 688 q 108 739 88 726 q 159 784 139 757 q 179 868 179 811 l 174 868 q 119 891 142 868 q 96 946 96 914 l 96 954 q 119 1009 96 986 q 174 1032 142 1032 l 188 1032 z "},"(":{"ha":433,"x_min":71,"x_max":368,"o":"m 360 -129 q 368 -164 368 -144 q 351 -199 368 -183 q 315 -214 335 -214 q 285 -207 294 -214 q 267 -189 276 -200 q 119 91 167 -69 q 71 426 71 251 q 119 762 71 601 q 267 1042 167 922 q 285 1060 276 1053 q 315 1067 294 1067 q 351 1051 335 1067 q 368 1016 368 1036 q 360 982 368 996 q 197 426 197 710 q 360 -129 197 143 z "},")":{"ha":433,"x_min":67,"x_max":364,"o":"m 120 -214 q 110 -214 120 -214 q 83 -199 100 -214 q 67 -164 67 -183 q 75 -129 67 -144 q 238 426 238 143 q 75 982 238 710 q 67 1016 67 996 q 83 1051 67 1036 q 120 1067 100 1067 q 149 1060 140 1067 q 168 1042 158 1053 q 316 762 268 922 q 364 426 364 601 q 316 91 364 251 q 168 -189 268 -69 q 149 -207 158 -200 q 120 -214 140 -214 z "},"*":{"ha":579,"x_min":92,"x_max":486,"o":"m 328 754 l 467 700 q 486 672 486 690 q 456 625 486 635 q 421 631 436 618 q 383 660 417 633 q 308 721 350 688 q 321 639 317 668 l 328 594 q 330 578 329 581 q 331 565 331 575 q 317 544 331 556 q 289 533 304 533 q 260 544 274 533 q 247 565 247 556 l 247 578 q 254 626 247 585 q 269 721 261 668 q 145 624 153 628 q 122 625 138 619 q 92 663 92 635 q 111 700 92 690 q 115 701 113 700 q 131 708 118 703 q 172 724 144 714 q 250 754 200 735 l 111 808 q 92 838 92 821 q 122 885 92 875 q 153 881 138 890 q 191 851 154 881 q 269 788 228 821 q 247 931 247 928 l 247 935 q 260 964 247 953 q 289 975 274 975 q 317 964 304 975 q 331 943 331 953 q 330 931 331 933 q 328 914 329 928 l 321 869 q 308 788 317 840 q 425 881 425 881 q 456 885 440 890 q 486 848 486 875 q 467 808 486 821 q 463 807 465 808 q 447 800 460 806 q 406 784 433 794 q 328 754 378 774 z "},"+":{"ha":781,"x_min":56,"x_max":725,"o":"m 671 533 q 710 518 694 533 q 725 479 725 503 q 710 441 725 456 q 671 426 694 426 l 444 426 l 444 199 q 429 160 444 175 q 390 144 414 144 q 351 160 367 144 q 336 199 336 175 l 336 426 l 108 426 q 70 441 85 426 q 56 479 56 456 q 70 518 56 503 q 108 533 85 533 l 336 533 l 336 761 q 351 800 336 785 q 390 815 367 815 q 429 800 414 815 q 444 761 444 785 l 444 533 l 671 533 z "},",":{"ha":361,"x_min":88,"x_max":265,"o":"m 188 160 q 242 137 219 160 q 265 82 265 114 l 265 0 q 228 -131 265 -74 q 151 -203 201 -172 q 127 -210 144 -210 q 99 -197 110 -210 q 88 -165 88 -185 q 108 -133 88 -146 q 159 -88 139 -115 q 179 -4 179 -61 l 174 -4 q 119 19 142 -4 q 96 74 96 42 l 96 82 q 119 137 96 114 q 174 160 142 160 l 188 160 z "},"-":{"ha":567,"x_min":96,"x_max":471,"o":"m 414 446 q 454 429 438 446 q 471 389 471 413 q 454 349 471 365 q 414 333 438 333 l 151 333 q 112 349 128 333 q 96 389 96 365 q 112 429 96 413 q 151 446 128 446 l 414 446 z "},".":{"ha":361,"x_min":96,"x_max":265,"o":"m 188 160 q 242 137 219 160 q 265 82 265 114 l 265 74 q 242 19 265 42 q 188 -4 219 -4 l 174 -4 q 119 19 142 -4 q 96 74 96 42 l 96 82 q 119 137 96 114 q 174 160 142 160 l 188 160 z "},"/":{"ha":615,"x_min":67,"x_max":550,"o":"m 439 1022 q 494 1061 451 1061 q 534 1044 518 1061 q 550 1014 550 1028 q 546 983 550 992 l 178 -93 q 124 -132 165 -132 q 83 -115 99 -132 q 67 -83 67 -99 q 71 -54 67 -62 l 439 1022 z "},":":{"ha":361,"x_min":96,"x_max":265,"o":"m 188 160 q 242 137 219 160 q 265 82 265 114 l 265 74 q 242 19 265 42 q 188 -4 219 -4 l 174 -4 q 119 19 142 -4 q 96 74 96 42 l 96 82 q 119 137 96 114 q 174 160 142 160 l 188 160 m 188 713 q 242 690 219 713 q 265 635 265 667 l 265 626 q 242 572 265 594 q 188 549 219 549 l 174 549 q 119 572 142 549 q 96 626 96 594 l 96 635 q 119 690 96 667 q 174 713 142 713 l 188 713 z "},";":{"ha":361,"x_min":88,"x_max":265,"o":"m 188 160 q 242 137 219 160 q 265 82 265 114 l 265 0 q 228 -131 265 -74 q 151 -203 201 -172 q 127 -210 144 -210 q 99 -197 110 -210 q 88 -165 88 -185 q 108 -133 88 -146 q 159 -88 139 -115 q 179 -4 179 -61 l 174 -4 q 119 19 142 -4 q 96 74 96 42 l 96 82 q 119 137 96 114 q 174 160 142 160 l 188 160 m 188 713 q 242 690 219 713 q 265 635 265 667 l 265 626 q 242 572 265 594 q 188 549 219 549 l 174 549 q 119 572 142 549 q 96 626 96 594 l 96 635 q 119 690 96 667 q 174 713 142 713 l 188 713 z "},"<":{"ha":806,"x_min":49,"x_max":731,"o":"m 731 133 q 731 123 731 133 q 715 97 731 113 q 681 81 699 81 q 653 85 663 81 l 99 333 q 49 406 49 357 l 49 417 q 99 489 49 465 l 653 738 q 681 742 663 742 q 715 726 699 742 q 731 689 731 710 q 693 633 731 649 l 193 411 l 693 189 q 720 167 710 182 q 731 133 731 153 z "},"=":{"ha":989,"x_min":101,"x_max":888,"o":"m 156 561 q 117 576 132 561 q 101 615 101 592 q 117 654 101 639 q 156 669 132 669 l 833 669 q 872 654 857 669 q 888 615 888 639 q 872 576 888 592 q 833 561 857 561 l 156 561 m 833 358 q 872 343 857 358 q 888 304 888 328 q 872 265 888 281 q 833 250 857 250 l 156 250 q 117 265 132 250 q 101 304 101 281 q 117 343 101 328 q 156 358 132 358 l 833 358 z "},">":{"ha":806,"x_min":75,"x_max":757,"o":"m 153 85 q 124 81 142 81 q 91 97 107 81 q 75 133 75 113 q 113 189 75 174 l 613 411 l 113 633 q 85 655 96 640 q 75 690 75 669 q 91 726 75 710 q 124 742 107 742 q 153 738 142 742 l 707 489 q 757 417 757 465 l 757 406 q 707 333 757 357 l 153 85 z "},"?":{"ha":690,"x_min":36,"x_max":628,"o":"m 503 714 q 304 865 503 865 q 126 819 196 865 q 88 808 108 808 q 52 824 68 808 q 36 861 36 840 q 71 917 36 896 q 315 983 179 983 q 542 913 458 983 q 628 721 628 840 q 497 500 628 596 q 388 389 421 443 q 368 323 368 357 q 349 274 368 289 q 306 258 331 258 q 263 274 281 258 q 246 313 246 290 q 375 550 246 450 q 481 648 458 617 q 503 714 503 679 m 222 77 q 222 94 222 77 q 247 135 222 111 q 305 160 271 160 q 363 135 339 160 q 388 77 388 111 q 363 19 388 43 q 305 -6 339 -6 q 247 19 271 -6 q 222 77 222 43 z "},"@":{"ha":1247,"x_min":68,"x_max":1186,"o":"m 636 713 q 814 642 739 713 l 818 665 q 835 697 821 685 q 870 708 850 708 q 905 694 890 708 q 919 667 919 679 l 919 651 q 918 642 919 649 l 872 378 q 863 285 863 319 q 878 224 863 251 q 932 197 894 197 q 1065 274 1019 197 q 1111 463 1111 350 q 1072 651 1111 575 q 967 779 1032 728 q 657 882 838 882 q 458 840 551 882 q 293 728 364 799 q 181 563 222 657 q 140 379 140 469 q 167 216 140 289 q 247 86 194 143 q 556 -43 365 -43 q 697 -29 646 -43 q 808 6 761 -12 q 865 24 854 24 q 886 15 876 24 q 896 -13 896 6 q 876 -42 896 -32 q 556 -115 729 -115 q 354 -76 444 -115 q 200 30 264 -36 q 102 183 136 96 q 68 376 68 269 q 115 590 68 483 q 242 778 163 697 q 429 908 322 860 q 650 956 536 956 q 860 920 764 956 q 1029 822 957 885 q 1144 670 1101 758 q 1186 475 1186 582 q 1128 242 1186 336 q 928 132 1057 132 q 786 197 824 132 q 772 235 776 217 q 543 131 686 131 q 367 200 432 131 q 307 361 307 267 q 335 519 307 456 q 410 625 364 582 q 636 713 503 713 m 799 550 q 642 614 739 614 q 483 556 547 614 q 414 389 414 492 q 461 264 414 307 q 574 226 503 226 q 746 325 692 226 q 776 421 767 363 l 799 550 z "},"A":{"ha":968,"x_min":36,"x_max":933,"o":"m 926 83 q 933 48 933 67 q 917 11 933 29 q 864 -7 900 -7 q 811 32 828 -7 l 721 249 l 249 249 l 158 32 q 106 -7 142 -7 q 53 11 69 -7 q 36 48 36 29 q 43 83 36 67 l 397 919 q 478 976 422 976 l 492 976 q 572 919 547 976 l 926 83 m 672 364 l 485 815 l 297 364 l 672 364 z "},"B":{"ha":963,"x_min":135,"x_max":890,"o":"m 836 718 q 700 504 836 568 q 875 358 832 460 q 890 265 890 319 q 871 161 890 211 q 808 75 851 111 q 533 0 719 0 l 197 0 q 153 18 171 0 q 135 63 135 36 l 135 906 q 153 951 135 932 q 197 969 171 969 l 525 969 q 757 900 678 969 q 836 718 836 831 m 715 708 q 663 813 715 774 q 515 851 611 851 l 261 851 l 261 550 l 492 550 q 706 646 671 550 q 715 708 715 675 m 521 118 q 756 213 718 118 q 768 278 768 242 q 706 399 768 361 q 522 436 643 436 l 261 436 l 261 118 l 521 118 z "},"C":{"ha":969,"x_min":78,"x_max":911,"o":"m 831 172 q 862 178 842 178 q 897 162 882 178 q 911 125 911 146 q 881 72 911 88 q 741 11 815 36 q 563 -14 667 -14 q 371 20 460 -14 q 217 119 282 54 q 78 485 78 256 q 217 850 78 714 q 564 983 351 983 q 741 958 667 983 q 855 912 815 933 q 903 877 894 890 q 911 844 911 864 q 897 808 911 824 q 862 792 882 792 q 831 797 842 792 q 717 844 775 826 q 572 863 658 863 q 415 833 485 863 q 297 753 344 804 q 204 485 204 651 q 297 217 204 318 q 576 107 399 107 q 717 125 658 107 q 831 172 775 143 z "},"D":{"ha":1042,"x_min":135,"x_max":967,"o":"m 476 969 q 846 814 708 969 q 937 659 907 746 q 967 485 967 572 q 937 310 967 397 q 846 156 907 224 q 476 0 708 0 l 197 0 q 153 18 171 0 q 135 63 135 36 l 135 906 q 153 951 135 932 q 197 969 171 969 l 476 969 m 461 118 q 739 219 633 118 q 842 485 842 321 q 739 750 842 649 q 461 851 633 851 l 261 851 l 261 118 l 461 118 z "},"E":{"ha":886,"x_min":135,"x_max":814,"o":"m 754 118 q 797 101 779 118 q 814 58 814 83 q 797 17 814 33 q 754 0 779 0 l 197 0 q 153 18 171 0 q 135 63 135 36 l 135 906 q 153 951 135 932 q 197 969 171 969 l 754 969 q 797 952 779 969 q 814 910 814 935 q 797 868 814 885 q 754 851 779 851 l 261 851 l 261 544 l 704 544 q 747 527 729 544 q 764 485 764 510 q 747 443 764 460 q 704 426 729 426 l 261 426 l 261 118 l 754 118 z "},"F":{"ha":847,"x_min":135,"x_max":797,"o":"m 261 851 l 261 544 l 689 544 q 731 527 714 544 q 749 485 749 510 q 731 443 749 460 q 689 426 714 426 l 261 426 l 261 56 q 242 11 261 29 q 197 -7 224 -7 q 153 11 171 -7 q 135 56 135 29 l 135 906 q 153 951 135 932 q 197 969 171 969 l 738 969 q 780 952 763 969 q 797 910 797 935 q 780 868 797 885 q 738 851 763 851 l 261 851 z "},"G":{"ha":1033,"x_min":76,"x_max":935,"o":"m 581 106 q 824 167 711 106 l 824 418 l 594 418 q 554 435 571 418 q 538 475 538 451 q 554 515 538 499 q 594 532 571 532 l 868 532 q 915 513 896 532 q 935 465 935 493 l 935 150 q 920 98 935 121 q 882 64 906 75 q 564 -14 726 -14 q 211 125 346 -14 q 76 483 76 265 q 217 847 76 704 q 560 983 351 983 q 759 954 678 983 q 906 883 840 925 q 933 840 933 868 q 918 794 933 811 q 881 776 903 776 q 846 783 860 776 q 574 861 711 861 q 310 764 413 861 q 203 483 203 661 q 303 214 203 319 q 581 106 406 106 z "},"H":{"ha":1049,"x_min":135,"x_max":914,"o":"m 850 976 q 895 958 876 976 q 914 913 914 939 l 914 56 q 895 11 914 29 q 850 -7 876 -7 q 806 11 824 -7 q 788 56 788 29 l 788 425 l 261 425 l 261 56 q 242 11 261 29 q 197 -7 224 -7 q 153 11 171 -7 q 135 56 135 29 l 135 913 q 153 958 135 939 q 197 976 171 976 q 242 958 224 976 q 261 913 261 939 l 261 543 l 788 543 l 788 913 q 806 958 788 939 q 850 976 824 976 z "},"I":{"ha":396,"x_min":135,"x_max":261,"o":"m 197 976 q 242 958 224 976 q 261 913 261 939 l 261 56 q 242 11 261 29 q 197 -7 224 -7 q 153 11 171 -7 q 135 56 135 29 l 135 913 q 153 958 135 939 q 197 976 171 976 z "},"J":{"ha":647,"x_min":17,"x_max":518,"o":"m 454 976 q 499 958 481 976 q 518 913 518 939 l 518 319 q 428 53 518 138 q 232 -14 356 -14 q 47 33 131 -14 q 17 78 17 50 q 31 124 17 107 q 65 142 46 142 q 103 132 83 142 q 205 106 156 106 q 285 113 254 106 q 339 143 315 121 q 392 311 392 193 l 392 913 q 410 958 392 939 q 454 976 428 976 z "},"K":{"ha":931,"x_min":135,"x_max":889,"o":"m 874 94 q 889 51 889 75 q 872 10 889 28 q 825 -7 854 -7 q 778 18 796 -7 l 419 475 l 261 315 l 261 56 q 242 11 261 29 q 197 -7 224 -7 q 153 11 171 -7 q 135 56 135 29 l 135 913 q 153 958 135 939 q 197 976 171 976 q 242 958 224 976 q 261 913 261 939 l 261 471 l 736 954 q 781 976 754 976 q 825 960 808 976 q 842 919 842 944 q 826 878 842 893 l 506 558 l 874 94 z "},"L":{"ha":800,"x_min":135,"x_max":779,"o":"m 715 126 q 760 108 742 126 q 779 63 779 89 q 760 18 779 36 q 715 0 742 0 l 222 0 q 160 26 186 0 q 135 88 135 51 l 135 913 q 153 958 135 939 q 197 976 171 976 q 242 958 224 976 q 261 913 261 939 l 261 126 l 715 126 z "},"M":{"ha":1342,"x_min":135,"x_max":1207,"o":"m 1117 976 q 1181 949 1154 976 q 1207 885 1207 922 l 1207 56 q 1189 11 1207 29 q 1144 -7 1171 -7 q 1099 11 1118 -7 q 1081 56 1081 29 l 1081 844 l 760 51 q 725 9 749 25 q 671 -7 701 -7 q 617 9 640 -7 q 582 51 593 25 l 261 844 l 261 56 q 242 11 261 29 q 197 -7 224 -7 q 153 11 171 -7 q 135 56 135 29 l 135 885 q 161 949 135 922 q 225 976 188 976 l 271 976 q 322 960 299 976 q 356 918 344 943 l 671 132 l 986 918 q 1020 960 997 943 q 1071 976 1043 976 l 1117 976 z "},"N":{"ha":1115,"x_min":135,"x_max":981,"o":"m 917 976 q 962 958 943 976 q 981 913 981 939 l 981 83 q 953 19 981 46 q 889 -7 926 -7 l 872 -7 q 799 31 826 -7 l 261 807 l 261 56 q 242 11 261 29 q 197 -7 224 -7 q 153 11 171 -7 q 135 56 135 29 l 135 885 q 161 949 135 922 q 225 976 188 976 l 243 976 q 319 935 286 976 l 854 163 l 854 913 q 872 958 854 939 q 917 976 890 976 z "},"O":{"ha":1126,"x_min":76,"x_max":1051,"o":"m 564 983 q 917 843 783 983 q 1051 485 1046 706 q 917 126 1046 264 q 564 -14 783 -14 q 211 126 343 -14 q 76 485 79 265 q 211 843 79 704 q 564 983 343 983 m 564 104 q 831 214 733 104 q 925 485 925 319 q 831 756 925 650 q 564 865 733 865 q 297 756 394 865 q 203 485 203 650 q 297 214 203 319 q 564 104 394 104 z "},"P":{"ha":929,"x_min":135,"x_max":885,"o":"m 514 969 q 804 869 707 969 q 885 661 885 789 q 804 453 885 533 q 514 353 707 353 l 261 353 l 261 56 q 242 11 261 29 q 197 -7 224 -7 q 153 11 171 -7 q 135 56 135 29 l 135 906 q 153 951 135 932 q 197 969 171 969 l 514 969 m 501 472 q 708 533 644 472 q 758 661 758 581 q 629 833 758 790 q 501 850 579 850 l 261 850 l 261 472 l 501 472 z "},"Q":{"ha":1128,"x_min":76,"x_max":1051,"o":"m 647 -8 q 564 -14 608 -14 q 211 126 343 -14 q 76 485 79 265 q 211 843 79 704 q 564 983 343 983 q 917 843 783 983 q 1051 485 1046 706 q 974 200 1049 321 q 764 24 899 79 l 886 -111 q 903 -152 903 -128 q 885 -194 903 -176 q 842 -211 868 -211 q 799 -189 817 -211 l 647 -8 m 564 104 q 831 214 733 104 q 925 485 925 319 q 831 756 925 650 q 564 865 733 865 q 297 756 394 865 q 203 485 203 650 q 297 214 203 319 q 564 104 394 104 z "},"R":{"ha":989,"x_min":135,"x_max":899,"o":"m 890 56 q 872 11 890 29 q 826 -7 854 -7 q 781 10 799 -7 q 764 56 764 28 l 764 97 q 739 263 764 210 q 671 347 714 315 q 549 378 628 378 l 261 378 l 261 56 q 242 11 261 29 q 197 -7 224 -7 q 153 11 171 -7 q 135 56 135 29 l 135 906 q 153 951 135 932 q 197 969 171 969 l 521 969 q 808 889 711 969 q 899 688 899 813 q 853 538 899 607 q 717 436 808 468 q 861 292 817 410 q 890 119 890 213 l 890 56 m 513 497 q 701 543 629 497 q 772 678 772 589 q 717 803 772 761 q 506 850 650 850 l 261 850 l 261 497 l 513 497 z "},"S":{"ha":856,"x_min":71,"x_max":796,"o":"m 428 106 q 671 265 671 106 q 578 372 671 332 q 484 402 538 389 q 376 431 431 415 q 267 465 321 446 q 172 515 214 485 q 81 699 81 585 q 172 899 81 821 q 440 983 272 983 q 717 938 592 983 q 756 882 756 924 q 741 842 756 861 q 709 824 726 824 q 661 835 692 824 q 454 867 571 867 q 278 826 347 867 q 207 708 207 785 q 299 589 207 629 q 393 557 340 569 q 501 531 446 544 q 610 498 557 517 q 704 449 663 479 q 796 257 796 382 q 700 63 796 138 q 440 -14 601 -14 q 110 53 264 -14 q 83 75 94 60 q 71 112 71 90 q 86 151 71 133 q 122 168 101 168 q 172 155 142 168 q 269 124 201 142 q 428 106 338 106 z "},"T":{"ha":849,"x_min":19,"x_max":829,"o":"m 769 969 q 812 952 794 969 q 829 910 829 935 q 812 868 829 885 q 769 851 794 851 l 488 851 l 488 56 q 469 11 488 29 q 424 -7 450 -7 q 379 11 397 -7 q 361 56 361 29 l 361 851 l 78 851 q 36 868 53 851 q 19 910 19 885 q 36 952 19 935 q 78 969 53 969 l 769 969 z "},"U":{"ha":1053,"x_min":128,"x_max":925,"o":"m 861 976 q 906 958 888 976 q 925 913 925 939 l 925 364 q 794 78 925 182 q 526 -14 682 -14 q 257 78 368 -14 q 128 364 128 182 l 128 913 q 146 958 128 939 q 190 976 164 976 q 235 958 217 976 q 254 913 254 939 l 254 360 q 339 165 254 236 q 526 101 417 101 q 714 165 636 101 q 799 360 799 236 l 799 913 q 817 958 799 939 q 861 976 835 976 z "},"V":{"ha":964,"x_min":33,"x_max":931,"o":"m 482 119 l 808 933 q 862 976 826 976 q 914 958 897 976 q 931 919 931 940 q 926 889 931 899 l 583 57 q 497 -7 554 -7 l 467 -7 q 381 57 410 -7 l 38 889 q 33 919 33 899 q 50 958 33 940 q 92 976 67 976 q 156 933 138 976 l 482 119 z "},"W":{"ha":1399,"x_min":36,"x_max":1364,"o":"m 700 976 q 745 962 725 976 q 772 924 765 947 l 1007 160 l 1240 926 q 1303 976 1256 976 q 1347 960 1331 976 q 1364 926 1364 944 q 1360 892 1364 907 l 1088 56 q 1006 -7 1065 -7 q 955 10 978 -7 q 924 56 932 28 l 700 764 l 476 56 q 445 10 468 28 q 394 -7 422 -7 q 313 56 335 -7 l 40 892 q 36 926 36 907 q 53 960 36 944 q 94 976 69 976 q 160 926 144 976 l 393 160 l 628 924 q 655 962 635 947 q 700 976 675 976 z "},"X":{"ha":929,"x_min":60,"x_max":869,"o":"m 857 92 q 869 53 869 76 q 853 12 869 31 q 814 -7 836 -7 q 757 19 776 -7 l 460 393 l 167 18 q 120 -7 146 -7 q 77 10 94 -7 q 60 51 60 28 q 72 90 60 74 l 393 485 l 75 876 q 63 917 63 893 q 80 959 63 942 q 127 976 97 976 q 175 951 157 976 l 468 579 l 761 954 q 804 976 776 976 q 850 959 832 976 q 868 919 868 942 q 857 882 868 897 l 536 486 l 857 92 z "},"Y":{"ha":896,"x_min":42,"x_max":856,"o":"m 739 944 q 791 976 760 976 q 839 958 822 976 q 856 917 856 940 q 844 875 856 893 l 511 410 l 511 56 q 493 11 511 29 q 449 -7 475 -7 q 403 11 422 -7 q 385 56 385 29 l 385 410 l 53 875 q 42 917 42 893 q 58 958 42 940 q 106 976 75 976 q 158 944 138 976 l 449 522 l 739 944 z "},"Z":{"ha":886,"x_min":65,"x_max":824,"o":"m 764 118 q 806 101 789 118 q 824 58 824 83 q 806 17 824 33 q 764 0 789 0 l 146 0 q 89 24 113 0 q 65 79 65 47 q 82 132 65 111 l 663 849 l 128 849 q 85 866 103 849 q 68 908 68 883 q 85 951 68 933 q 128 969 103 969 l 731 969 q 793 944 771 969 q 815 885 815 918 q 793 828 815 853 l 219 118 l 764 118 z "},"[":{"ha":447,"x_min":121,"x_max":408,"o":"m 358 -85 q 394 -99 379 -85 q 408 -133 408 -114 q 394 -168 408 -153 q 358 -183 379 -183 l 182 -183 q 139 -165 157 -183 q 121 -122 121 -147 l 121 956 q 139 999 121 981 q 182 1017 157 1017 l 358 1017 q 394 1002 379 1017 q 408 967 408 988 q 394 931 408 946 q 358 917 379 917 l 231 917 l 231 -85 l 358 -85 z "},"\\":{"ha":615,"x_min":65,"x_max":549,"o":"m 65 1010 q 65 1019 65 1010 q 81 1044 65 1028 q 119 1061 97 1061 q 176 1022 164 1061 l 544 -54 q 549 -81 549 -62 q 533 -115 549 -99 q 494 -132 517 -132 q 438 -93 450 -132 l 69 983 q 65 1010 65 992 z "},"]":{"ha":447,"x_min":39,"x_max":326,"o":"m 217 -85 l 217 917 l 89 917 q 53 931 68 917 q 39 967 39 946 q 53 1002 39 988 q 89 1017 68 1017 l 265 1017 q 308 999 290 1017 q 326 956 326 981 l 326 -122 q 308 -165 326 -147 q 265 -183 290 -183 l 89 -183 q 53 -168 68 -183 q 39 -133 39 -153 q 53 -99 39 -114 q 89 -85 68 -85 l 217 -85 z "},"^":{"ha":728,"x_min":114,"x_max":611,"o":"m 389 975 q 431 961 417 975 q 457 928 446 947 l 603 651 q 608 639 606 644 q 611 620 611 633 q 597 592 611 607 q 561 576 583 576 q 519 599 533 576 q 501 630 517 604 q 453 708 486 656 q 363 856 421 761 q 272 709 304 761 q 224 631 240 657 q 206 600 208 606 q 167 576 192 576 q 128 592 142 576 q 114 620 114 607 q 117 639 114 633 q 122 651 119 644 l 268 928 q 294 961 279 947 q 336 975 308 975 l 389 975 z "},"_":{"ha":921,"x_min":72,"x_max":849,"o":"m 803 -112 q 835 -126 822 -112 q 849 -158 849 -139 q 835 -191 849 -178 q 803 -204 822 -204 l 118 -204 q 85 -191 99 -204 q 72 -158 72 -178 q 85 -126 72 -139 q 118 -112 99 -112 l 803 -112 z "},"`":{"ha":342,"x_min":96,"x_max":274,"o":"m 96 951 q 151 1003 96 1003 q 193 976 179 1003 l 264 851 q 274 825 274 842 q 263 798 274 808 q 235 788 253 788 q 206 803 218 788 l 110 917 q 96 951 96 932 z "},"a":{"ha":771,"x_min":53,"x_max":667,"o":"m 136 672 q 378 722 253 722 q 597 636 519 722 q 667 449 667 561 l 667 56 q 648 11 667 29 q 603 -7 629 -7 q 558 11 576 -7 q 540 56 540 29 l 540 92 q 440 19 503 53 q 279 -14 376 -14 q 119 42 183 -14 q 53 194 53 100 q 131 356 53 297 q 372 419 215 419 l 540 419 l 540 431 q 494 563 540 524 q 354 603 449 603 q 169 569 274 603 q 144 567 158 567 q 115 581 131 567 q 100 626 100 596 q 136 672 100 657 m 179 208 q 326 97 179 97 q 448 129 392 97 q 540 201 504 161 l 540 318 l 389 318 q 235 293 290 318 q 179 208 179 268 z "},"b":{"ha":876,"x_min":110,"x_max":810,"o":"m 236 617 q 474 722 339 722 q 704 626 608 722 q 810 354 810 521 q 704 81 810 185 q 473 -14 607 -14 q 236 92 339 -14 l 236 56 q 218 11 236 29 q 173 -7 200 -7 q 128 11 146 -7 q 110 56 110 29 l 110 957 q 128 1003 110 985 q 173 1021 146 1021 q 218 1003 200 1021 q 236 957 236 985 l 236 617 m 236 208 q 456 104 331 104 q 667 246 614 104 q 683 354 683 293 q 619 542 683 474 q 456 604 558 604 q 236 500 331 604 l 236 208 z "},"c":{"ha":744,"x_min":64,"x_max":689,"o":"m 446 104 q 594 143 524 104 q 639 157 619 157 q 674 139 658 157 q 689 96 689 121 q 657 50 689 71 q 435 -14 558 -14 q 175 83 281 -14 q 64 354 64 186 q 175 625 64 522 q 435 722 281 722 q 572 701 518 722 q 657 658 625 679 q 689 613 689 638 q 674 569 689 588 q 643 551 658 551 q 594 565 619 551 q 446 604 524 604 q 257 535 324 604 q 190 354 190 467 q 257 173 190 242 q 446 104 324 104 z "},"d":{"ha":876,"x_min":67,"x_max":767,"o":"m 640 92 q 403 -14 538 -14 q 172 81 269 -14 q 67 354 67 185 q 172 626 67 521 q 403 722 268 722 q 640 617 538 722 l 640 957 q 658 1003 640 985 q 703 1021 676 1021 q 749 1003 731 1021 q 767 957 767 985 l 767 56 q 749 11 767 29 q 703 -7 731 -7 q 658 11 676 -7 q 640 56 640 29 l 640 92 m 640 500 q 421 604 546 604 q 211 463 263 604 q 193 354 193 415 q 258 167 193 235 q 421 104 318 104 q 640 208 546 104 l 640 500 z "},"e":{"ha":792,"x_min":68,"x_max":731,"o":"m 196 310 q 267 160 207 215 q 433 104 326 104 q 613 140 540 104 q 656 153 638 153 q 690 138 674 153 q 707 103 707 122 q 677 51 707 67 q 624 24 647 35 q 572 4 600 13 q 428 -14 510 -14 q 163 82 257 -14 q 68 354 68 178 q 147 608 68 507 q 400 722 236 722 q 646 617 556 722 q 731 372 731 518 q 713 328 731 346 q 667 310 696 310 l 196 310 m 400 615 q 219 506 276 615 q 196 413 199 467 l 606 413 q 533 568 600 511 q 400 615 478 615 z "},"f":{"ha":528,"x_min":26,"x_max":524,"o":"m 472 899 l 403 907 q 319 883 350 907 q 289 785 289 858 l 289 708 l 463 708 q 501 693 486 708 q 517 654 517 678 q 501 615 517 631 q 463 600 486 600 l 289 600 l 289 56 q 271 11 289 29 q 226 -7 253 -7 q 181 11 199 -7 q 163 56 163 29 l 163 600 l 81 600 q 42 615 57 600 q 26 654 26 631 q 42 693 26 678 q 81 708 57 708 l 163 708 l 163 789 q 231 975 163 910 q 371 1028 286 1028 q 492 1000 436 1028 q 524 957 524 982 q 509 915 524 932 q 472 899 494 899 z "},"g":{"ha":876,"x_min":67,"x_max":767,"o":"m 640 617 l 640 651 q 658 697 640 678 q 703 715 676 715 q 748 697 729 715 q 767 651 767 678 l 767 31 q 682 -240 767 -146 q 440 -333 597 -333 q 143 -261 274 -333 q 118 -219 118 -246 q 134 -174 118 -192 q 167 -156 150 -156 q 199 -161 185 -156 q 428 -214 304 -214 q 640 13 640 -214 l 640 106 q 403 0 542 0 q 176 89 271 0 q 67 361 67 190 q 176 633 67 532 q 406 722 271 722 q 640 617 542 722 m 640 504 q 551 576 601 544 q 440 607 501 607 q 336 592 379 607 q 261 547 293 576 q 193 361 193 483 q 336 131 193 182 q 440 115 379 115 q 640 218 542 115 l 640 504 z "},"h":{"ha":846,"x_min":110,"x_max":743,"o":"m 464 606 q 236 472 342 606 l 236 56 q 217 11 236 29 q 172 -7 199 -7 q 128 11 146 -7 q 110 56 110 29 l 110 957 q 128 1003 110 985 q 172 1021 146 1021 q 217 1003 199 1021 q 236 957 236 985 l 236 594 q 332 676 292 653 q 483 722 411 722 q 600 701 554 722 q 678 642 646 679 q 743 450 743 565 l 743 56 q 724 11 743 29 q 679 -7 706 -7 q 635 11 653 -7 q 617 56 617 29 l 617 436 q 581 560 617 515 q 464 606 546 606 z "},"i":{"ha":357,"x_min":104,"x_max":254,"o":"m 115 651 q 133 697 115 679 q 178 715 151 715 q 224 697 206 715 q 242 651 242 679 l 242 56 q 224 11 242 29 q 178 -7 206 -7 q 133 11 151 -7 q 115 56 115 29 l 115 651 m 254 924 q 233 874 254 894 q 183 853 213 853 l 175 853 q 125 874 146 853 q 104 924 104 894 l 104 929 q 125 979 104 958 q 175 1000 146 1000 l 183 1000 q 233 979 213 1000 q 254 929 254 958 l 254 924 z "},"j":{"ha":357,"x_min":-64,"x_max":254,"o":"m -11 -218 l 31 -222 q 88 -211 74 -222 q 115 -140 115 -193 l 115 650 q 133 696 115 678 q 178 714 151 714 q 224 696 206 714 q 242 650 242 678 l 242 -143 q 144 -319 242 -278 q 60 -333 110 -333 q -27 -322 10 -333 q -64 -271 -64 -310 q -49 -234 -64 -250 q -11 -218 -35 -218 m 254 924 q 233 874 254 894 q 183 853 213 853 l 175 853 q 125 874 146 853 q 104 924 104 894 l 104 929 q 125 979 104 958 q 175 1000 146 1000 l 183 1000 q 233 979 213 1000 q 254 929 254 958 l 254 924 z "},"k":{"ha":758,"x_min":110,"x_max":711,"o":"m 697 92 q 711 50 711 74 q 693 10 711 26 q 653 -7 675 -7 q 596 19 619 -7 l 357 344 l 236 235 l 236 56 q 217 11 236 29 q 172 -7 199 -7 q 128 11 146 -7 q 110 56 110 29 l 110 957 q 128 1002 110 983 q 172 1021 146 1021 q 217 1002 199 1021 q 236 957 236 983 l 236 389 l 567 694 q 617 713 589 713 q 657 692 644 713 q 669 658 669 672 q 646 604 669 628 l 446 425 l 697 92 z "},"l":{"ha":368,"x_min":121,"x_max":247,"o":"m 121 957 q 139 1003 121 985 q 184 1021 157 1021 q 229 1003 211 1021 q 247 957 247 985 l 247 56 q 229 11 247 29 q 184 -7 211 -7 q 139 11 157 -7 q 121 56 121 29 l 121 957 z "},"m":{"ha":1276,"x_min":110,"x_max":1172,"o":"m 236 594 q 472 722 321 722 q 608 678 547 722 q 685 579 658 643 q 761 665 724 640 q 940 722 840 722 q 1117 636 1053 722 q 1172 456 1172 563 l 1172 56 q 1153 11 1172 29 q 1108 -7 1135 -7 q 1064 11 1082 -7 q 1046 56 1046 29 l 1046 431 q 1015 562 1046 518 q 904 606 983 606 q 704 472 782 606 l 704 56 q 685 11 704 29 q 640 -7 667 -7 q 596 11 614 -7 q 578 56 578 29 l 578 431 q 547 562 578 518 q 436 606 515 606 q 236 472 314 606 l 236 56 q 217 11 236 29 q 172 -7 199 -7 q 128 11 146 -7 q 110 56 110 29 l 110 651 q 128 697 110 678 q 172 715 146 715 q 217 697 199 715 q 236 651 236 678 l 236 594 z "},"n":{"ha":846,"x_min":110,"x_max":743,"o":"m 464 606 q 236 472 342 606 l 236 56 q 217 11 236 29 q 172 -7 199 -7 q 128 11 146 -7 q 110 56 110 29 l 110 651 q 128 697 110 679 q 172 715 146 715 q 217 697 199 715 q 236 651 236 679 l 236 594 q 332 676 292 653 q 483 722 411 722 q 600 701 554 722 q 678 642 646 679 q 743 450 743 565 l 743 56 q 724 11 743 29 q 679 -7 706 -7 q 635 11 653 -7 q 617 56 617 29 l 617 436 q 581 560 617 515 q 464 606 546 606 z "},"o":{"ha":844,"x_min":67,"x_max":778,"o":"m 422 722 q 681 621 583 722 q 778 354 778 518 q 681 88 778 190 q 422 -14 583 -14 q 164 88 260 -14 q 67 354 67 189 q 164 621 67 519 q 422 722 260 722 m 267 159 q 284 144 267 159 q 341 115 300 129 q 422 101 382 101 q 502 115 461 101 q 576 158 543 129 q 651 356 651 226 q 576 550 651 481 q 422 607 514 607 q 214 472 272 607 q 193 355 193 424 q 214 238 193 286 q 267 159 235 189 z "},"p":{"ha":876,"x_min":110,"x_max":810,"o":"m 236 617 q 474 722 339 722 q 704 626 608 722 q 810 354 810 521 q 704 81 810 185 q 473 -14 607 -14 q 236 92 339 -14 l 236 -262 q 218 -308 236 -290 q 173 -326 200 -326 q 128 -308 146 -326 q 110 -262 110 -290 l 110 653 q 128 697 110 679 q 173 715 146 715 q 218 697 200 715 q 236 653 236 679 l 236 617 m 236 208 q 456 104 331 104 q 667 246 614 104 q 683 354 683 293 q 619 542 683 474 q 456 604 558 604 q 236 500 331 604 l 236 208 z "},"q":{"ha":876,"x_min":67,"x_max":767,"o":"m 640 92 q 403 -14 538 -14 q 172 81 269 -14 q 67 354 67 185 q 172 626 67 521 q 403 722 268 722 q 640 617 538 722 l 640 653 q 658 697 640 679 q 703 715 676 715 q 749 697 731 715 q 767 653 767 679 l 767 -262 q 749 -308 767 -290 q 703 -326 731 -326 q 658 -308 676 -326 q 640 -262 640 -290 l 640 92 m 640 500 q 421 604 546 604 q 211 463 263 604 q 193 354 193 415 q 258 167 193 235 q 421 104 318 104 q 640 208 546 104 l 640 500 z "},"r":{"ha":538,"x_min":110,"x_max":522,"o":"m 236 592 q 454 722 333 722 l 461 722 q 505 704 488 722 q 522 659 522 686 q 504 616 522 632 q 458 600 486 600 l 451 600 q 327 566 382 600 q 236 478 272 532 l 236 56 q 217 11 236 29 q 172 -7 199 -7 q 128 11 146 -7 q 110 56 110 29 l 110 651 q 128 697 110 678 q 172 715 146 715 q 217 697 199 715 q 236 651 236 678 l 236 592 z "},"s":{"ha":667,"x_min":67,"x_max":611,"o":"m 335 103 q 489 201 489 103 q 458 248 489 232 q 381 276 428 264 q 281 302 335 289 q 180 339 226 315 q 103 401 133 363 q 72 494 72 439 q 89 590 72 550 q 139 660 106 631 q 343 722 213 722 q 544 688 447 722 q 574 665 564 681 q 585 631 585 650 q 569 596 585 613 q 538 579 553 579 q 500 586 522 579 q 354 607 433 607 q 234 579 275 607 q 193 513 193 551 q 224 455 193 474 q 301 424 256 436 q 402 399 347 411 q 503 364 457 386 q 611 192 611 308 q 544 47 611 103 q 343 -14 472 -14 q 90 49 203 -14 q 67 90 67 65 q 82 133 67 115 q 115 150 97 150 q 158 139 133 150 q 335 103 239 103 z "},"t":{"ha":533,"x_min":31,"x_max":506,"o":"m 369 97 q 387 97 369 97 q 422 103 406 97 q 456 110 438 110 q 490 96 475 110 q 506 54 506 82 q 478 14 506 26 q 376 -14 418 -14 q 299 -10 333 -14 q 232 14 264 -6 q 156 169 156 58 l 156 600 l 57 600 q 31 626 31 600 q 43 650 31 639 l 232 835 q 256 847 244 847 q 274 839 267 847 q 282 819 282 831 l 282 708 l 439 708 q 478 693 463 708 q 493 654 493 678 q 478 615 493 631 q 439 600 463 600 l 282 600 l 282 181 q 314 108 282 128 q 369 97 332 97 z "},"u":{"ha":847,"x_min":104,"x_max":738,"o":"m 383 103 q 611 236 506 103 l 611 653 q 630 697 611 679 q 675 715 649 715 q 719 697 701 715 q 738 653 738 679 l 738 57 q 719 11 738 29 q 675 -7 701 -7 q 630 11 649 -7 q 611 57 611 29 l 611 114 q 515 32 556 56 q 365 -14 436 -14 q 247 8 293 -14 q 169 67 201 29 q 104 258 104 143 l 104 653 q 123 697 104 679 q 168 715 142 715 q 213 697 194 715 q 231 653 231 679 l 231 272 q 266 148 231 193 q 383 103 301 103 z "},"v":{"ha":736,"x_min":36,"x_max":700,"o":"m 581 679 q 642 715 597 715 q 682 697 664 715 q 700 661 700 678 q 693 622 700 639 l 451 44 q 422 8 442 24 q 375 -7 401 -7 l 361 -7 q 315 8 335 -7 q 285 44 294 24 l 43 622 q 36 658 36 639 q 54 697 36 678 q 94 715 72 715 q 156 679 139 715 l 368 140 l 581 679 z "},"w":{"ha":1090,"x_min":35,"x_max":1057,"o":"m 938 678 q 997 715 949 715 q 1039 697 1021 715 q 1057 660 1057 679 q 1053 629 1057 642 l 856 51 q 825 10 847 28 q 775 -7 803 -7 q 725 10 747 -7 q 693 53 703 28 l 546 513 l 399 53 q 367 10 389 28 q 317 -7 344 -7 q 267 10 289 -7 q 236 51 244 28 l 39 629 q 35 660 35 642 q 53 697 35 679 q 94 715 71 715 q 154 678 143 715 l 317 143 l 478 665 q 503 701 485 688 q 546 715 522 715 q 588 701 569 715 q 614 665 607 688 l 775 143 l 938 678 z "},"x":{"ha":753,"x_min":71,"x_max":683,"o":"m 667 97 q 682 56 682 79 q 666 13 682 33 q 619 -7 650 -7 q 569 18 588 -7 l 372 254 l 186 21 q 135 -7 165 -7 q 88 10 104 -7 q 72 53 72 28 q 86 96 72 78 l 301 350 l 86 613 q 71 657 71 632 q 89 699 71 682 q 137 715 107 715 q 183 692 167 715 l 378 451 l 571 692 q 617 715 588 715 q 665 698 647 715 q 683 658 683 681 q 669 617 683 635 l 450 358 l 667 97 z "},"y":{"ha":740,"x_min":33,"x_max":707,"o":"m 644 715 q 689 697 671 715 q 707 658 707 678 q 703 628 707 638 l 324 -283 q 265 -326 306 -326 q 223 -308 240 -326 q 206 -272 206 -290 q 210 -243 206 -254 l 300 -11 l 39 625 q 33 658 33 639 q 51 697 33 678 q 92 715 69 715 q 154 676 138 715 l 368 146 l 586 674 q 644 715 604 715 z "},"z":{"ha":693,"x_min":54,"x_max":635,"o":"m 635 58 q 617 17 635 33 q 575 0 600 0 l 142 0 q 80 19 106 0 q 54 72 54 38 q 76 131 54 106 l 476 590 l 125 590 q 83 607 100 590 q 67 649 67 624 q 83 691 67 674 q 125 708 100 708 l 546 708 q 604 687 582 708 q 626 631 626 665 q 607 574 626 597 l 218 118 l 575 118 q 617 101 600 118 q 635 58 635 83 z "},"{":{"ha":478,"x_min":4,"x_max":439,"o":"m 163 426 q 288 263 288 381 l 288 -46 q 297 -82 288 -72 q 369 -104 317 -104 l 390 -104 q 424 -119 410 -104 q 439 -153 439 -133 q 424 -187 439 -172 q 390 -201 410 -201 l 374 -201 q 235 -169 281 -201 q 179 -35 179 -129 l 179 258 q 164 321 179 303 q 51 371 135 356 q 4 426 4 379 q 51 482 4 474 q 123 502 97 490 q 161 528 149 514 q 179 594 179 550 l 179 888 q 297 1047 179 1024 q 374 1054 332 1054 l 390 1054 q 424 1040 410 1054 q 439 1006 439 1025 q 424 972 439 986 q 390 957 410 957 l 369 957 q 289 917 294 957 q 288 899 288 907 l 288 590 q 163 426 288 472 z "},"|":{"ha":351,"x_min":119,"x_max":232,"o":"m 175 1029 q 215 1013 199 1029 q 232 972 232 996 l 232 -217 q 215 -256 232 -240 q 175 -272 199 -272 q 135 -256 151 -272 q 119 -217 119 -240 l 119 972 q 135 1013 119 996 q 175 1029 151 1029 z "},"}":{"ha":478,"x_min":39,"x_max":474,"o":"m 315 426 q 190 590 190 472 l 190 899 q 181 935 190 925 q 108 957 161 957 l 88 957 q 53 972 68 957 q 39 1006 39 986 q 53 1040 39 1025 q 88 1054 68 1054 l 104 1054 q 243 1022 197 1054 q 299 888 299 982 l 299 594 q 314 532 299 550 q 426 482 343 497 q 474 426 474 474 q 427 371 474 379 q 355 351 381 363 q 317 325 329 339 q 299 258 299 303 l 299 -35 q 181 -194 299 -171 q 104 -201 146 -201 l 88 -201 q 53 -187 68 -201 q 39 -153 39 -172 q 53 -119 39 -133 q 88 -104 68 -104 l 108 -104 q 189 -64 183 -104 q 190 -46 190 -54 l 190 263 q 315 426 190 381 z "},"~":{"ha":886,"x_min":103,"x_max":789,"o":"m 688 427 q 692 432 688 427 q 703 453 697 438 q 720 488 710 468 q 750 508 731 508 q 789 476 789 508 q 788 465 789 471 q 723 330 771 374 q 615 286 675 286 q 510 303 556 286 q 423 339 464 319 q 344 375 382 358 q 267 392 307 392 q 172 317 194 392 q 144 290 165 290 q 113 301 124 290 q 103 335 103 311 q 117 392 103 360 q 156 450 131 425 q 273 510 211 510 q 381 493 335 510 q 469 457 428 476 q 547 421 510 438 q 617 404 585 404 q 663 410 649 404 q 688 427 678 417 z "}," ":{"ha":361,"x_min":0,"x_max":0,"o":""},"¡":{"ha":360,"x_min":100,"x_max":265,"o":"m 182 440 q 135 400 138 440 l 110 -58 l 110 -196 q 131 -247 110 -226 q 182 -268 151 -268 q 233 -247 213 -268 q 253 -196 253 -226 l 253 -58 l 228 400 q 182 440 225 440 m 100 631 q 100 614 100 631 q 124 573 100 597 q 183 549 149 549 q 241 573 217 549 q 265 631 265 597 q 241 690 265 665 q 183 714 217 714 q 124 690 149 714 q 100 631 100 665 z "},"¢":{"ha":765,"x_min":61,"x_max":686,"o":"m 172 625 q 291 697 224 672 q 415 722 358 722 q 504 717 471 722 l 544 835 q 577 861 554 861 q 610 849 600 861 q 621 826 621 836 q 618 807 621 815 l 581 696 q 658 656 624 681 q 686 613 686 638 q 671 569 686 588 q 640 551 656 551 q 603 560 617 551 l 543 588 l 379 110 q 451 104 406 104 q 532 117 497 104 q 589 142 567 129 q 637 157 618 157 q 671 139 656 157 q 686 96 686 121 q 654 50 686 71 q 432 -14 556 -14 q 340 -3 388 -14 l 292 -146 q 260 -171 283 -171 q 226 -159 238 -171 q 215 -137 215 -147 q 219 -114 215 -122 l 265 21 q 118 146 175 61 q 61 354 61 231 q 172 625 61 522 m 188 354 q 306 136 188 199 l 465 603 q 454 604 460 604 q 443 604 449 604 q 254 535 321 604 q 188 354 188 467 z "},"£":{"ha":839,"x_min":54,"x_max":785,"o":"m 310 164 l 344 165 q 457 146 397 165 q 549 117 517 126 q 611 108 581 108 q 683 117 660 108 q 736 129 721 129 q 768 113 751 129 q 785 69 785 97 q 683 -4 785 22 q 603 -14 646 -14 q 529 -4 561 -14 q 467 17 497 6 q 336 49 389 49 q 179 1 250 49 q 145 -10 164 -10 q 111 5 126 -10 q 96 42 96 19 q 117 84 96 65 q 160 132 138 103 q 201 197 183 161 q 243 354 243 278 q 235 426 243 390 l 85 426 q 54 457 54 426 q 63 480 54 471 q 85 489 71 489 l 218 489 q 188 585 203 536 q 174 700 174 635 q 198 818 174 765 q 267 908 222 871 q 511 983 360 983 q 711 943 615 983 q 753 888 753 926 q 737 847 753 864 q 704 829 721 829 q 656 838 679 829 q 520 861 589 861 q 410 847 451 861 q 344 811 368 833 q 300 709 300 769 q 317 596 300 649 q 349 489 333 543 l 594 489 q 617 480 608 489 q 626 457 626 471 q 617 435 626 443 q 594 426 608 426 l 363 426 q 368 363 368 399 q 310 164 368 256 z "},"¤":{"ha":928,"x_min":92,"x_max":836,"o":"m 464 156 q 271 218 357 156 l 179 128 q 140 113 161 113 q 106 128 119 113 q 92 164 92 143 q 107 200 92 185 l 197 290 q 135 485 135 379 q 197 679 135 590 l 107 769 q 92 806 92 785 q 106 842 92 826 q 136 857 119 857 q 179 842 161 857 l 271 751 q 464 814 357 814 q 657 751 571 814 l 749 842 q 788 857 767 857 q 822 842 808 857 q 836 806 836 826 q 821 769 836 785 l 731 679 q 793 485 793 590 q 731 290 793 379 l 821 200 q 836 164 836 185 q 822 128 836 143 q 792 113 808 113 q 749 128 767 113 l 657 218 q 464 156 571 156 m 464 701 q 311 638 375 701 q 247 485 247 574 q 311 332 247 396 q 464 268 375 268 q 617 332 553 268 q 681 485 681 396 q 617 638 681 574 q 464 701 553 701 z "},"¥":{"ha":914,"x_min":90,"x_max":824,"o":"m 457 529 l 697 950 q 752 989 719 989 q 804 971 785 989 q 824 929 824 953 q 813 888 824 906 l 579 507 l 715 507 q 752 492 738 507 q 767 454 767 476 q 753 417 767 432 q 715 403 739 403 l 519 403 l 519 276 l 715 276 q 752 261 738 276 q 767 224 767 246 q 753 187 767 201 q 715 172 739 172 l 519 172 l 519 54 q 501 10 519 28 q 457 -8 482 -8 q 413 10 432 -8 q 394 54 394 28 l 394 172 l 199 172 q 161 187 175 172 q 147 224 147 201 q 162 261 147 246 q 199 276 176 276 l 394 276 l 394 403 l 199 403 q 161 417 175 403 q 147 454 147 432 q 162 492 147 476 q 199 507 176 507 l 335 507 l 101 888 q 90 929 90 906 q 110 971 90 953 q 155 989 129 989 q 194 978 181 989 q 217 950 207 967 l 457 529 z "},"§":{"ha":735,"x_min":65,"x_max":665,"o":"m 215 610 q 126 778 126 674 q 194 922 126 867 q 388 983 265 983 q 603 946 511 983 q 640 892 640 929 q 623 853 640 869 q 589 836 606 836 q 550 844 572 836 q 403 867 493 867 q 246 769 246 867 q 277 713 246 735 q 355 671 308 690 q 456 631 401 651 q 556 582 510 611 q 665 406 665 514 q 579 253 665 303 q 528 229 554 238 q 618 63 618 167 q 550 -83 618 -26 q 350 -143 479 -143 q 88 -81 188 -143 q 65 -39 65 -67 q 81 5 65 -11 q 111 21 96 21 q 149 13 128 21 q 342 -26 226 -26 q 499 71 499 -26 q 467 127 499 104 q 390 169 436 150 q 289 209 343 189 q 189 258 235 229 q 79 435 79 325 q 164 586 79 538 q 215 610 189 601 m 299 565 q 196 443 196 539 q 276 343 196 383 q 356 309 313 325 q 444 275 400 293 q 549 397 549 301 q 467 497 549 456 q 387 531 432 515 q 299 565 342 546 z "},"¨":{"ha":556,"x_min":88,"x_max":464,"o":"m 158 940 q 208 919 188 940 q 229 869 229 899 q 208 819 229 840 q 158 799 188 799 q 108 819 129 799 q 88 869 88 840 q 108 919 88 899 q 158 940 129 940 m 393 940 q 443 919 422 940 q 464 869 464 899 q 443 819 464 840 q 393 799 422 799 q 343 819 364 799 q 322 869 322 840 q 343 919 322 899 q 393 940 364 940 z "},"©":{"ha":1138,"x_min":71,"x_max":1068,"o":"m 569 -12 q 376 26 467 -12 q 217 133 285 65 q 110 292 149 201 q 71 485 71 382 q 110 678 71 588 q 217 836 149 768 q 376 943 285 904 q 569 982 467 982 q 763 943 672 982 q 922 836 854 904 q 1028 678 989 768 q 1068 485 1068 588 q 1028 292 1068 382 q 922 133 989 201 q 763 26 854 65 q 569 -12 672 -12 m 569 910 q 403 876 481 910 q 268 785 326 843 q 143 485 143 660 q 268 185 143 310 q 568 60 393 60 q 871 185 746 60 q 996 485 996 310 q 871 785 996 660 q 569 910 746 910 m 813 349 q 720 242 779 281 q 590 203 661 203 q 469 223 518 203 q 383 281 419 243 q 310 485 310 357 q 384 690 310 613 q 578 767 458 767 q 720 728 661 767 q 813 621 779 689 q 817 598 817 613 q 804 571 817 583 q 776 558 792 558 q 751 564 761 558 q 723 599 740 569 q 669 656 706 629 q 583 682 633 682 q 501 666 533 682 q 447 622 468 650 q 403 485 403 568 q 447 347 403 401 q 578 288 493 288 q 729 381 675 288 q 769 411 747 411 q 804 399 792 411 q 817 372 817 386 q 813 349 817 357 z "},"ª":{"ha":674,"x_min":92,"x_max":563,"o":"m 524 396 q 551 384 539 396 q 563 357 563 372 q 551 330 563 342 q 524 318 539 318 l 131 318 q 103 330 115 318 q 92 357 92 342 q 103 384 92 372 q 131 396 115 396 l 524 396 m 442 538 q 274 471 382 471 q 161 511 208 471 q 113 620 113 551 q 167 728 113 689 q 336 768 222 768 l 442 768 l 442 771 q 412 862 442 835 q 333 889 382 889 q 197 867 257 889 q 176 864 189 864 q 151 877 164 864 q 139 906 139 890 q 172 950 139 938 q 324 983 257 983 q 430 967 392 983 q 493 922 468 950 q 542 790 542 871 l 542 525 q 527 490 542 504 q 492 475 513 475 q 456 490 471 475 q 442 525 442 504 l 442 538 m 347 693 q 213 628 213 693 q 233 581 213 600 q 300 561 253 561 q 442 626 383 561 l 442 693 l 347 693 z "},"«":{"ha":813,"x_min":75,"x_max":710,"o":"m 408 118 q 421 81 421 103 q 406 43 421 58 q 365 28 390 28 q 328 43 340 28 l 100 294 q 75 354 75 319 q 100 414 75 389 l 328 665 q 365 681 340 681 q 406 665 390 681 q 421 627 421 650 q 408 590 421 604 l 186 354 l 408 118 m 697 118 q 710 81 710 103 q 694 43 710 58 q 654 28 679 28 q 617 43 629 28 l 389 294 q 364 354 364 319 q 389 414 364 389 l 617 665 q 654 681 629 681 q 694 665 679 681 q 710 627 710 650 q 697 590 710 604 l 475 354 l 697 118 z "},"¬":{"ha":804,"x_min":101,"x_max":689,"o":"m 631 532 q 672 515 654 532 q 689 474 689 497 l 689 285 q 674 248 689 263 q 636 233 658 233 q 599 248 614 233 q 585 285 585 263 l 585 432 l 151 432 q 116 447 131 432 q 101 482 101 461 q 116 517 101 503 q 151 532 131 532 l 631 532 z "},"®":{"ha":1138,"x_min":71,"x_max":1068,"o":"m 569 983 q 763 944 672 983 q 922 837 854 904 q 1028 678 989 769 q 1068 485 1068 588 q 1028 291 1068 382 q 922 132 989 200 q 763 25 854 64 q 569 -14 672 -14 q 376 25 467 -14 q 217 132 285 64 q 110 291 149 200 q 71 485 71 382 q 110 678 71 588 q 217 837 149 769 q 376 944 285 904 q 569 983 467 983 m 569 58 q 735 92 657 58 q 871 183 813 125 q 996 486 996 308 q 871 786 996 661 q 568 911 746 911 q 268 786 393 911 q 143 486 143 661 q 268 183 143 308 q 569 58 393 58 m 592 761 q 758 713 706 761 q 810 603 810 665 q 778 508 810 542 q 707 460 747 475 q 772 408 740 449 q 803 286 803 368 l 803 249 q 789 215 803 229 q 756 201 775 201 q 722 215 736 201 q 708 249 708 229 l 708 274 q 697 360 708 333 q 607 415 672 415 l 456 415 l 456 247 q 442 215 456 228 q 408 201 428 201 q 376 215 389 201 q 363 247 363 228 l 363 697 q 381 742 363 724 q 425 761 399 761 l 592 761 m 588 497 q 682 521 646 497 q 718 588 718 544 q 690 656 718 632 q 585 681 661 681 l 456 681 l 456 497 l 588 497 z "},"¯":{"ha":433,"x_min":11,"x_max":419,"o":"m 378 900 q 408 888 396 900 q 419 858 419 876 q 408 828 419 840 q 378 817 396 817 l 53 817 q 23 828 35 817 q 11 858 11 840 q 23 888 11 876 q 53 900 35 900 l 378 900 z "},"°":{"ha":525,"x_min":72,"x_max":453,"o":"m 263 983 q 397 928 342 983 q 453 793 453 872 q 397 658 453 713 q 263 603 339 603 q 128 659 185 603 q 72 793 72 715 q 128 928 72 869 q 263 983 182 983 m 263 675 q 346 710 311 675 q 381 793 381 744 q 346 876 381 842 q 263 911 311 911 q 179 876 214 911 q 144 793 144 842 q 179 710 144 744 q 263 675 214 675 z "},"±":{"ha":842,"x_min":86,"x_max":756,"o":"m 701 107 q 740 92 725 107 q 756 53 756 76 q 740 15 756 29 q 701 0 725 0 l 139 0 q 101 15 115 0 q 86 53 86 29 q 101 92 86 76 q 139 107 115 107 l 701 107 m 139 475 q 101 490 115 475 q 86 528 86 504 q 101 567 86 551 q 139 582 115 582 l 367 582 l 367 801 q 382 840 367 825 q 421 856 397 856 q 460 840 444 856 q 475 801 475 825 l 475 582 l 701 582 q 740 567 725 582 q 756 528 756 551 q 740 490 756 504 q 701 475 725 475 l 475 475 l 475 256 q 460 217 475 232 q 421 201 444 201 q 382 217 397 201 q 367 256 367 232 l 367 475 l 139 475 z "},"²":{"ha":514,"x_min":53,"x_max":454,"o":"m 413 708 q 442 697 431 708 q 454 667 454 685 q 442 638 454 649 q 413 626 431 626 l 107 626 q 68 644 83 626 q 53 691 53 661 q 76 753 53 721 q 133 812 99 785 q 207 864 167 839 q 281 913 247 889 q 338 960 315 936 q 361 1016 361 985 q 337 1072 361 1047 q 261 1096 313 1096 q 121 1065 179 1096 q 99 1061 113 1061 q 75 1072 86 1061 q 64 1103 64 1082 q 89 1139 64 1124 q 253 1181 160 1181 q 397 1134 346 1181 q 449 1018 449 1088 q 317 833 449 922 q 249 786 282 808 q 149 708 167 733 l 413 708 z "},"³":{"ha":514,"x_min":50,"x_max":447,"o":"m 196 946 q 342 1026 342 946 q 271 1092 342 1079 q 222 1096 251 1096 q 114 1069 167 1096 q 93 1065 106 1065 q 69 1076 81 1065 q 57 1106 57 1086 q 86 1142 57 1125 q 251 1181 161 1181 q 384 1138 340 1181 q 428 1036 428 1094 q 399 949 428 978 q 342 908 371 919 q 447 774 447 876 q 339 631 447 668 q 244 618 300 618 q 74 653 136 618 q 50 687 50 667 q 63 719 50 707 q 85 731 75 731 q 113 725 97 731 q 232 704 183 704 q 360 776 360 704 q 204 863 360 863 l 189 863 q 159 874 171 863 q 147 904 147 886 q 159 934 147 922 q 189 946 171 946 l 196 946 z "},"´":{"ha":333,"x_min":67,"x_max":244,"o":"m 147 976 q 189 1003 161 1003 q 244 951 244 1003 q 231 917 244 932 l 135 803 q 105 788 122 788 q 77 798 88 788 q 67 821 67 808 q 76 851 67 842 l 147 976 z "},"µ":{"ha":839,"x_min":117,"x_max":750,"o":"m 396 103 q 624 236 518 103 l 624 653 q 642 697 624 679 q 688 715 661 715 q 732 697 714 715 q 750 653 750 679 l 750 57 q 732 11 750 29 q 688 -7 714 -7 q 642 11 661 -7 q 624 57 624 29 l 624 114 q 528 31 565 51 q 378 -14 454 -14 q 243 24 301 -14 l 243 -240 q 224 -285 243 -267 q 179 -303 206 -303 q 135 -285 153 -303 q 117 -240 117 -267 l 117 653 q 135 697 117 679 q 181 715 154 715 q 225 697 207 715 q 243 653 243 679 l 243 272 q 278 148 243 193 q 396 103 314 103 z "},"¶":{"ha":1017,"x_min":54,"x_max":956,"o":"m 900 969 q 940 953 924 969 q 956 914 956 938 q 940 875 956 890 q 900 860 924 860 l 836 860 l 836 -256 q 820 -295 836 -279 q 781 -311 804 -311 q 742 -295 757 -311 q 726 -256 726 -279 l 726 860 l 571 860 l 571 -256 q 555 -295 571 -279 q 515 -311 539 -311 q 476 -295 492 -311 q 461 -256 461 -279 l 461 256 l 411 256 q 158 360 263 256 q 54 613 54 464 q 158 865 54 761 q 411 969 263 969 l 900 969 z "},"·":{"ha":361,"x_min":96,"x_max":265,"o":"m 188 478 q 242 455 219 478 q 265 400 265 432 l 265 392 q 242 337 265 360 q 188 314 219 314 l 174 314 q 119 337 142 314 q 96 392 96 360 l 96 400 q 119 455 96 432 q 174 478 142 478 l 188 478 z "},"¸":{"ha":426,"x_min":63,"x_max":357,"o":"m 185 -247 q 264 -183 264 -247 q 249 -151 264 -162 q 217 -140 235 -140 q 167 -149 183 -140 q 137 -160 144 -160 q 122 -153 129 -160 q 114 -137 114 -147 q 119 -118 114 -126 l 208 24 l 267 24 l 203 -87 q 261 -82 225 -82 q 327 -108 297 -82 q 357 -179 357 -135 q 203 -307 357 -307 q 78 -271 136 -307 q 63 -247 63 -264 q 89 -219 63 -219 q 103 -224 94 -219 q 185 -247 146 -247 z "},"¹":{"ha":514,"x_min":108,"x_max":433,"o":"m 392 708 q 422 697 410 708 q 433 667 433 685 q 422 638 433 649 q 392 626 410 626 l 150 626 q 121 638 132 626 q 110 667 110 649 q 121 697 110 685 q 150 708 132 708 l 233 708 l 233 1076 l 171 1046 q 147 1040 160 1040 q 121 1052 133 1040 q 108 1085 108 1064 q 135 1121 108 1107 l 235 1172 q 269 1179 249 1179 q 306 1162 290 1179 q 322 1119 322 1144 l 322 708 l 392 708 z "},"º":{"ha":714,"x_min":97,"x_max":617,"o":"m 356 983 q 458 965 413 983 q 536 913 504 946 q 604 728 604 843 q 536 542 604 613 q 357 471 468 471 q 178 542 246 471 q 110 728 110 613 q 178 913 110 843 q 356 983 246 983 m 357 560 q 490 651 450 560 q 504 729 504 683 q 456 858 504 811 q 357 896 417 896 q 258 858 299 896 q 210 729 210 813 q 258 599 210 644 q 357 560 297 560 m 578 396 q 605 384 593 396 q 617 357 617 372 q 605 330 617 342 q 578 318 593 318 l 136 318 q 109 330 121 318 q 97 357 97 342 q 109 384 97 372 q 136 396 121 396 l 578 396 z "},"»":{"ha":813,"x_min":103,"x_max":738,"o":"m 447 28 q 435 28 447 28 q 407 43 422 28 q 392 81 392 58 q 404 118 392 103 l 626 354 l 404 590 q 392 627 392 604 q 407 665 392 650 q 447 681 422 681 q 485 665 472 681 l 713 414 q 738 354 738 389 q 713 294 738 319 l 485 43 q 447 28 472 28 m 158 28 q 146 28 158 28 q 118 43 133 28 q 103 81 103 58 q 115 118 103 103 l 338 354 l 115 590 q 103 627 103 604 q 118 665 103 650 q 158 681 133 681 q 196 665 183 681 l 424 414 q 449 354 449 389 q 424 294 449 319 l 196 43 q 158 28 183 28 z "},"¼":{"ha":1306,"x_min":118,"x_max":1204,"o":"m 1163 215 q 1192 203 1181 215 q 1204 174 1204 192 q 1192 144 1204 156 q 1163 133 1181 133 l 1113 133 l 1113 38 q 1100 6 1113 18 q 1068 -7 1088 -7 q 1036 6 1049 -7 q 1024 38 1024 18 l 1024 133 l 807 133 q 766 151 783 133 q 749 190 749 168 q 764 232 749 213 l 993 521 q 1043 550 1018 550 l 1054 550 q 1096 533 1079 550 q 1113 492 1113 515 l 1113 215 l 1163 215 m 1024 215 l 1024 440 l 847 215 l 1024 215 m 403 -14 q 367 -33 390 -33 q 331 -20 344 -33 q 317 9 317 -7 q 324 39 317 25 l 899 986 q 934 1006 911 1006 q 971 992 957 1006 q 985 963 985 979 q 978 933 985 947 l 403 -14 m 401 513 q 431 501 419 513 q 443 471 443 489 q 431 442 443 453 q 401 431 419 431 l 160 431 q 131 442 142 431 q 119 471 119 453 q 131 501 119 489 q 160 513 142 513 l 243 513 l 243 881 l 181 850 q 156 844 169 844 q 131 856 143 844 q 118 890 118 868 q 144 925 118 911 l 244 976 q 279 983 258 983 q 316 966 300 983 q 332 924 332 949 l 332 513 l 401 513 z "},"½":{"ha":1306,"x_min":110,"x_max":1201,"o":"m 393 513 q 423 501 411 513 q 435 471 435 489 q 423 442 435 453 q 393 431 411 431 l 151 431 q 122 442 133 431 q 111 471 111 453 q 122 501 111 489 q 151 513 133 513 l 235 513 l 235 881 l 172 850 q 148 844 161 844 q 122 856 135 844 q 110 890 110 868 q 136 925 110 911 l 236 976 q 271 983 250 983 q 308 966 292 983 q 324 924 324 949 l 324 513 l 393 513 m 394 -14 q 359 -33 382 -33 q 322 -20 336 -33 q 308 9 308 -7 q 315 39 308 25 l 890 986 q 926 1006 903 1006 q 963 992 949 1006 q 976 963 976 979 q 969 933 976 947 l 394 -14 m 1160 82 q 1190 70 1178 82 q 1201 40 1201 58 q 1190 11 1201 22 q 1160 0 1178 0 l 854 0 q 815 17 831 0 q 800 65 800 35 q 823 126 800 94 q 880 185 846 158 q 954 238 914 213 q 1028 286 994 263 q 1085 334 1063 310 q 1108 390 1108 358 q 1084 445 1108 421 q 1008 469 1060 469 q 868 439 926 469 q 847 435 860 435 q 822 445 833 435 q 811 476 811 456 q 836 513 811 497 q 1000 554 907 554 q 1144 508 1093 554 q 1196 392 1196 461 q 1064 206 1196 296 q 996 161 1029 182 q 896 82 914 107 l 1160 82 z "},"¾":{"ha":1306,"x_min":88,"x_max":1224,"o":"m 1182 215 q 1212 203 1200 215 q 1224 174 1224 192 q 1212 144 1224 156 q 1182 133 1200 133 l 1132 133 l 1132 38 q 1119 6 1132 18 q 1088 -7 1107 -7 q 1056 6 1068 -7 q 1043 38 1043 18 l 1043 133 l 826 133 q 785 151 803 133 q 768 190 768 168 q 783 232 768 213 l 1013 521 q 1063 550 1038 550 l 1074 550 q 1115 533 1099 550 q 1132 492 1132 515 l 1132 215 l 1182 215 m 1043 215 l 1043 440 l 867 215 l 1043 215 m 422 -14 q 387 -33 410 -33 q 350 -20 364 -33 q 336 9 336 -7 q 343 39 336 25 l 918 986 q 953 1006 931 1006 q 990 992 976 1006 q 1004 963 1004 979 q 997 933 1004 947 l 422 -14 m 233 750 q 379 831 379 750 q 308 897 379 883 q 261 900 289 900 q 151 874 204 900 q 131 869 143 869 q 106 880 118 869 q 94 910 94 890 q 125 944 94 929 q 288 985 199 985 q 422 942 378 985 q 465 840 465 899 q 437 753 465 782 q 379 713 408 724 q 485 578 485 681 q 376 436 485 472 q 282 422 338 422 q 111 457 174 422 q 88 491 88 471 q 100 523 88 511 q 122 535 113 535 q 150 531 135 535 q 269 508 221 508 q 397 581 397 508 q 242 667 397 667 l 226 667 q 197 678 208 667 q 185 708 185 690 q 197 738 185 726 q 226 750 208 750 l 233 750 z "},"¿":{"ha":678,"x_min":56,"x_max":649,"o":"m 181 -6 q 379 -157 181 -157 q 557 -111 488 -157 q 595 -100 575 -100 q 631 -116 615 -100 q 647 -153 647 -132 q 613 -208 647 -187 q 368 -275 504 -275 q 142 -204 225 -275 q 56 -12 56 -132 q 186 208 56 113 q 296 319 263 265 q 315 385 315 351 q 334 435 315 419 q 378 450 353 450 q 420 434 403 450 q 438 396 438 418 q 308 158 438 258 q 203 60 225 92 q 181 -6 181 29 m 461 631 q 461 614 461 631 q 437 573 461 597 q 378 549 413 549 q 320 573 344 549 q 296 631 296 597 q 320 690 296 665 q 378 714 344 714 q 437 690 413 714 q 461 631 461 665 z "},"À":{"ha":968,"x_min":36,"x_max":933,"o":"m 357 1190 q 413 1242 357 1242 q 454 1215 440 1242 l 525 1090 q 535 1064 535 1081 q 524 1037 535 1047 q 497 1026 514 1026 q 467 1042 479 1026 l 371 1156 q 357 1190 357 1171 m 926 83 q 933 48 933 67 q 917 11 933 29 q 864 -7 900 -7 q 811 32 828 -7 l 721 249 l 249 249 l 158 32 q 106 -7 142 -7 q 53 11 69 -7 q 36 48 36 29 q 43 83 36 67 l 397 919 q 478 976 422 976 l 492 976 q 572 919 547 976 l 926 83 m 672 364 l 485 815 l 297 364 l 672 364 z "},"Á":{"ha":968,"x_min":36,"x_max":933,"o":"m 514 1215 q 556 1242 528 1242 q 611 1190 611 1242 q 597 1156 611 1171 l 501 1042 q 472 1026 489 1026 q 444 1037 454 1026 q 433 1060 433 1047 q 443 1090 433 1081 l 514 1215 m 926 83 q 933 48 933 67 q 917 11 933 29 q 864 -7 900 -7 q 811 32 828 -7 l 721 249 l 249 249 l 158 32 q 106 -7 142 -7 q 53 11 69 -7 q 36 48 36 29 q 43 83 36 67 l 397 919 q 478 976 422 976 l 492 976 q 572 919 547 976 l 926 83 m 672 364 l 485 815 l 297 364 l 672 364 z "},"Â":{"ha":968,"x_min":36,"x_max":933,"o":"m 661 1093 q 672 1066 672 1082 q 660 1038 672 1050 q 632 1025 649 1025 q 606 1035 615 1025 l 485 1138 l 364 1035 q 338 1025 354 1025 q 309 1038 321 1025 q 297 1058 297 1050 q 297 1074 297 1065 q 308 1093 297 1082 l 403 1190 q 458 1218 431 1218 l 511 1218 q 567 1190 539 1218 l 661 1093 m 926 83 q 933 48 933 67 q 917 11 933 29 q 864 -7 900 -7 q 811 32 828 -7 l 721 249 l 249 249 l 158 32 q 106 -7 142 -7 q 53 11 69 -7 q 36 48 36 29 q 43 83 36 67 l 397 919 q 478 976 422 976 l 492 976 q 572 919 547 976 l 926 83 m 672 364 l 485 815 l 297 364 l 672 364 z "},"Ã":{"ha":968,"x_min":36,"x_max":933,"o":"m 679 1197 q 711 1167 708 1197 q 679 1078 711 1118 q 594 1035 643 1035 q 506 1058 553 1035 q 433 1091 458 1081 q 383 1101 407 1101 q 326 1057 346 1101 q 294 1032 319 1032 q 272 1041 282 1032 q 263 1067 263 1050 q 271 1108 263 1085 q 294 1150 279 1131 q 379 1196 326 1196 q 436 1185 410 1196 q 488 1163 463 1175 q 540 1141 514 1151 q 590 1131 565 1131 q 626 1140 615 1131 q 643 1164 638 1150 q 679 1197 656 1197 m 926 83 q 933 48 933 67 q 917 11 933 29 q 864 -7 900 -7 q 811 32 828 -7 l 721 249 l 249 249 l 158 32 q 106 -7 142 -7 q 53 11 69 -7 q 36 48 36 29 q 43 83 36 67 l 397 919 q 478 976 422 976 l 492 976 q 572 919 547 976 l 926 83 m 672 364 l 485 815 l 297 364 l 672 364 z "},"Ä":{"ha":968,"x_min":36,"x_max":933,"o":"m 926 83 q 933 48 933 67 q 917 11 933 29 q 864 -7 900 -7 q 811 32 828 -7 l 721 249 l 249 249 l 158 32 q 106 -7 142 -7 q 53 11 69 -7 q 36 48 36 29 q 43 83 36 67 l 397 919 q 478 976 422 976 l 492 976 q 572 919 547 976 l 926 83 m 672 364 l 485 815 l 297 364 l 672 364 m 368 1179 q 418 1158 397 1179 q 439 1108 439 1138 q 418 1058 439 1079 q 368 1038 397 1038 q 318 1058 339 1038 q 297 1108 297 1079 q 318 1158 297 1138 q 368 1179 339 1179 m 603 1179 q 653 1158 632 1179 q 674 1108 674 1138 q 653 1058 674 1079 q 603 1038 632 1038 q 553 1058 574 1038 q 532 1108 532 1079 q 553 1158 532 1138 q 603 1179 574 1179 z "},"Å":{"ha":968,"x_min":36,"x_max":933,"o":"m 483 1275 q 535 1265 511 1275 q 578 1238 560 1254 q 615 1144 615 1199 q 577 1052 615 1090 q 485 1014 539 1014 q 392 1052 431 1014 q 354 1144 354 1090 q 392 1237 354 1199 q 483 1275 431 1275 m 485 1076 q 533 1097 513 1076 q 553 1144 553 1117 q 533 1192 553 1172 q 485 1213 513 1213 q 437 1192 457 1213 q 417 1144 417 1172 q 437 1097 417 1117 q 485 1076 457 1076 m 926 83 q 933 48 933 67 q 917 11 933 29 q 864 -7 900 -7 q 811 32 828 -7 l 721 249 l 249 249 l 158 32 q 106 -7 142 -7 q 53 11 69 -7 q 36 48 36 29 q 43 83 36 67 l 397 919 q 478 976 422 976 l 492 976 q 572 919 547 976 l 926 83 m 672 364 l 485 815 l 297 364 l 672 364 z "},"Æ":{"ha":1444,"x_min":3,"x_max":1372,"o":"m 1313 118 q 1355 101 1338 118 q 1372 58 1372 83 q 1355 17 1372 33 q 1313 0 1338 0 l 756 0 q 711 18 729 0 q 693 63 693 36 l 693 249 l 265 249 l 124 29 q 69 -7 100 -7 q 21 11 39 -7 q 3 47 3 29 q 17 94 3 75 l 571 935 q 635 969 596 969 l 1313 969 q 1355 952 1338 969 q 1372 910 1372 935 q 1355 868 1372 885 q 1313 851 1338 851 l 819 851 l 819 544 l 1263 544 q 1305 527 1288 544 q 1322 485 1322 510 q 1305 443 1322 460 q 1263 426 1288 426 l 819 426 l 819 118 l 1313 118 m 693 851 l 658 851 l 340 364 l 693 364 l 693 851 z "},"Ç":{"ha":969,"x_min":78,"x_max":911,"o":"m 511 -247 q 590 -183 590 -247 q 576 -151 590 -162 q 543 -140 561 -140 q 493 -149 510 -140 q 463 -160 471 -160 q 448 -153 456 -160 q 440 -137 440 -147 q 446 -118 440 -126 l 513 -11 q 200 136 318 6 q 78 485 78 272 q 217 850 78 714 q 564 983 351 983 q 741 958 667 983 q 855 912 815 933 q 903 877 894 890 q 911 844 911 864 q 897 808 911 824 q 862 792 882 792 q 831 797 842 792 q 717 844 775 826 q 572 863 658 863 q 415 833 485 863 q 297 753 344 804 q 204 485 204 651 q 297 217 204 318 q 576 107 399 107 q 717 125 658 107 q 808 160 775 143 q 862 178 842 178 q 897 162 882 178 q 911 125 911 146 q 881 72 911 88 q 744 12 817 36 q 571 -14 671 -12 l 529 -87 q 588 -82 551 -82 q 653 -108 624 -82 q 683 -179 683 -135 q 529 -307 683 -307 q 404 -271 463 -307 q 389 -247 389 -264 q 415 -219 389 -219 q 429 -224 421 -219 q 511 -247 472 -247 z "},"È":{"ha":886,"x_min":135,"x_max":814,"o":"m 754 118 q 797 101 779 118 q 814 58 814 83 q 797 17 814 33 q 754 0 779 0 l 197 0 q 153 18 171 0 q 135 63 135 36 l 135 906 q 153 951 135 932 q 197 969 171 969 l 754 969 q 797 952 779 969 q 814 910 814 935 q 797 868 814 885 q 754 851 779 851 l 261 851 l 261 544 l 704 544 q 747 527 729 544 q 764 485 764 510 q 747 443 764 460 q 704 426 729 426 l 261 426 l 261 118 l 754 118 m 350 1190 q 406 1242 350 1242 q 447 1215 433 1242 l 518 1090 q 528 1064 528 1081 q 517 1037 528 1047 q 490 1026 507 1026 q 460 1042 472 1026 l 364 1156 q 350 1190 350 1171 z "},"É":{"ha":886,"x_min":135,"x_max":814,"o":"m 754 118 q 797 101 779 118 q 814 58 814 83 q 797 17 814 33 q 754 0 779 0 l 197 0 q 153 18 171 0 q 135 63 135 36 l 135 906 q 153 951 135 932 q 197 969 171 969 l 754 969 q 797 952 779 969 q 814 910 814 935 q 797 868 814 885 q 754 851 779 851 l 261 851 l 261 544 l 704 544 q 747 527 729 544 q 764 485 764 510 q 747 443 764 460 q 704 426 729 426 l 261 426 l 261 118 l 754 118 m 500 1215 q 542 1242 514 1242 q 597 1190 597 1242 q 583 1156 597 1171 l 488 1042 q 458 1026 475 1026 q 430 1037 440 1026 q 419 1060 419 1047 q 429 1090 419 1081 l 500 1215 z "},"Ê":{"ha":886,"x_min":135,"x_max":814,"o":"m 754 118 q 797 101 779 118 q 814 58 814 83 q 797 17 814 33 q 754 0 779 0 l 197 0 q 153 18 171 0 q 135 63 135 36 l 135 906 q 153 951 135 932 q 197 969 171 969 l 754 969 q 797 952 779 969 q 814 910 814 935 q 797 868 814 885 q 754 851 779 851 l 261 851 l 261 544 l 704 544 q 747 527 729 544 q 764 485 764 510 q 747 443 764 460 q 704 426 729 426 l 261 426 l 261 118 l 754 118 m 661 1093 q 672 1066 672 1082 q 660 1038 672 1050 q 632 1025 649 1025 q 606 1035 615 1025 l 485 1138 l 364 1035 q 338 1025 354 1025 q 309 1038 321 1025 q 297 1058 297 1050 q 297 1074 297 1065 q 308 1093 297 1082 l 403 1190 q 458 1218 431 1218 l 511 1218 q 567 1190 539 1218 l 661 1093 z "},"Ë":{"ha":886,"x_min":135,"x_max":814,"o":"m 754 118 q 797 101 779 118 q 814 58 814 83 q 797 17 814 33 q 754 0 779 0 l 197 0 q 153 18 171 0 q 135 63 135 36 l 135 906 q 153 951 135 932 q 197 969 171 969 l 754 969 q 797 952 779 969 q 814 910 814 935 q 797 868 814 885 q 754 851 779 851 l 261 851 l 261 544 l 704 544 q 747 527 729 544 q 764 485 764 510 q 747 443 764 460 q 704 426 729 426 l 261 426 l 261 118 l 754 118 m 353 1179 q 403 1158 382 1179 q 424 1108 424 1138 q 403 1058 424 1079 q 353 1038 382 1038 q 303 1058 324 1038 q 282 1108 282 1079 q 303 1158 282 1138 q 353 1179 324 1179 m 588 1179 q 638 1158 617 1179 q 658 1108 658 1138 q 638 1058 658 1079 q 588 1038 617 1038 q 538 1058 558 1038 q 517 1108 517 1079 q 538 1158 517 1138 q 588 1179 558 1179 z "},"Ì":{"ha":396,"x_min":79,"x_max":261,"o":"m 197 976 q 242 958 224 976 q 261 913 261 939 l 261 56 q 242 11 261 29 q 197 -7 224 -7 q 153 11 171 -7 q 135 56 135 29 l 135 913 q 153 958 135 939 q 197 976 171 976 m 79 1190 q 135 1242 79 1242 q 176 1215 163 1242 l 247 1090 q 257 1064 257 1081 q 247 1037 257 1047 q 219 1026 236 1026 q 189 1042 201 1026 l 93 1156 q 79 1190 79 1171 z "},"Í":{"ha":396,"x_min":135,"x_max":318,"o":"m 197 976 q 242 958 224 976 q 261 913 261 939 l 261 56 q 242 11 261 29 q 197 -7 224 -7 q 153 11 171 -7 q 135 56 135 29 l 135 913 q 153 958 135 939 q 197 976 171 976 m 221 1215 q 263 1242 235 1242 q 318 1190 318 1242 q 304 1156 318 1171 l 208 1042 q 178 1026 196 1026 q 151 1037 161 1026 q 140 1060 140 1047 q 150 1090 140 1081 l 221 1215 z "},"Î":{"ha":396,"x_min":11,"x_max":386,"o":"m 197 976 q 242 958 224 976 q 261 913 261 939 l 261 56 q 242 11 261 29 q 197 -7 224 -7 q 153 11 171 -7 q 135 56 135 29 l 135 913 q 153 958 135 939 q 197 976 171 976 m 375 1093 q 386 1066 386 1082 q 374 1038 386 1050 q 346 1025 363 1025 q 319 1035 329 1025 l 199 1138 l 78 1035 q 51 1025 68 1025 q 23 1038 35 1025 q 11 1058 11 1050 q 11 1074 11 1065 q 22 1093 11 1082 l 117 1190 q 172 1218 144 1218 l 225 1218 q 281 1190 253 1218 l 375 1093 z "},"Ï":{"ha":396,"x_min":11,"x_max":388,"o":"m 197 976 q 242 958 224 976 q 261 913 261 939 l 261 56 q 242 11 261 29 q 197 -7 224 -7 q 153 11 171 -7 q 135 56 135 29 l 135 913 q 153 958 135 939 q 197 976 171 976 m 82 1179 q 132 1158 111 1179 q 153 1108 153 1138 q 132 1058 153 1079 q 82 1038 111 1038 q 32 1058 53 1038 q 11 1108 11 1079 q 32 1158 11 1138 q 82 1179 53 1179 m 317 1179 q 367 1158 346 1179 q 388 1108 388 1138 q 367 1058 388 1079 q 317 1038 346 1038 q 267 1058 288 1038 q 246 1108 246 1079 q 267 1158 246 1138 q 317 1179 288 1179 z "},"Ð":{"ha":1051,"x_min":24,"x_max":976,"o":"m 486 969 q 856 814 718 969 q 947 659 917 746 q 976 485 976 572 q 947 310 976 397 q 856 156 917 224 q 486 0 718 0 l 207 0 q 163 18 181 0 q 144 63 144 36 l 144 438 l 69 438 q 37 451 50 438 q 24 483 24 464 q 37 517 24 503 q 69 531 50 531 l 144 531 l 144 906 q 163 951 144 932 q 207 969 181 969 l 486 969 m 471 118 q 747 219 643 118 q 851 485 851 321 q 747 750 851 649 q 471 851 643 851 l 271 851 l 271 531 l 433 531 q 467 517 453 531 q 481 483 481 503 q 467 451 481 464 q 433 438 453 438 l 271 438 l 271 118 l 471 118 z "},"Ñ":{"ha":1115,"x_min":135,"x_max":981,"o":"m 917 976 q 962 958 943 976 q 981 913 981 939 l 981 83 q 953 19 981 46 q 889 -7 926 -7 l 872 -7 q 799 31 826 -7 l 261 807 l 261 56 q 242 11 261 29 q 197 -7 224 -7 q 153 11 171 -7 q 135 56 135 29 l 135 885 q 161 949 135 922 q 225 976 188 976 l 243 976 q 319 935 286 976 l 854 163 l 854 913 q 872 958 854 939 q 917 976 890 976 m 757 1197 q 789 1167 786 1197 q 757 1078 789 1118 q 672 1035 721 1035 q 583 1058 631 1035 q 510 1091 536 1081 q 461 1101 485 1101 q 404 1057 424 1101 q 372 1032 397 1032 q 350 1041 360 1032 q 340 1067 340 1050 q 349 1108 340 1085 q 372 1150 357 1131 q 457 1196 404 1196 q 514 1185 488 1196 q 566 1163 540 1175 q 617 1141 592 1151 q 668 1131 643 1131 q 704 1140 693 1131 q 721 1164 715 1150 q 757 1197 733 1197 z "},"Ò":{"ha":1126,"x_min":76,"x_max":1051,"o":"m 564 983 q 917 843 783 983 q 1051 485 1046 706 q 917 126 1046 264 q 564 -14 783 -14 q 211 126 343 -14 q 76 485 79 265 q 211 843 79 704 q 564 983 343 983 m 564 104 q 831 214 733 104 q 925 485 925 319 q 831 756 925 650 q 564 865 733 865 q 297 756 394 865 q 203 485 203 650 q 297 214 203 319 q 564 104 394 104 m 447 1190 q 503 1242 447 1242 q 544 1215 531 1242 l 615 1090 q 625 1064 625 1081 q 615 1037 625 1047 q 587 1026 604 1026 q 557 1042 569 1026 l 461 1156 q 447 1190 447 1171 z "},"Ó":{"ha":1126,"x_min":76,"x_max":1051,"o":"m 564 983 q 917 843 783 983 q 1051 485 1046 706 q 917 126 1046 264 q 564 -14 783 -14 q 211 126 343 -14 q 76 485 79 265 q 211 843 79 704 q 564 983 343 983 m 564 104 q 831 214 733 104 q 925 485 925 319 q 831 756 925 650 q 564 865 733 865 q 297 756 394 865 q 203 485 203 650 q 297 214 203 319 q 564 104 394 104 m 583 1215 q 625 1242 597 1242 q 681 1190 681 1242 q 667 1156 681 1171 l 571 1042 q 541 1026 558 1026 q 513 1037 524 1026 q 503 1060 503 1047 q 513 1090 503 1081 l 583 1215 z "},"Ô":{"ha":1126,"x_min":76,"x_max":1051,"o":"m 564 983 q 917 843 783 983 q 1051 485 1046 706 q 917 126 1046 264 q 564 -14 783 -14 q 211 126 343 -14 q 76 485 79 265 q 211 843 79 704 q 564 983 343 983 m 564 104 q 831 214 733 104 q 925 485 925 319 q 831 756 925 650 q 564 865 733 865 q 297 756 394 865 q 203 485 203 650 q 297 214 203 319 q 564 104 394 104 m 740 1093 q 751 1066 751 1082 q 740 1038 751 1050 q 711 1025 728 1025 q 685 1035 694 1025 l 564 1138 l 443 1035 q 417 1025 433 1025 q 388 1038 400 1025 q 376 1058 376 1050 q 376 1074 376 1065 q 388 1093 376 1082 l 482 1190 q 538 1218 510 1218 l 590 1218 q 646 1190 618 1218 l 740 1093 z "},"Õ":{"ha":1126,"x_min":76,"x_max":1051,"o":"m 564 983 q 917 843 783 983 q 1051 485 1046 706 q 917 126 1046 264 q 564 -14 783 -14 q 211 126 343 -14 q 76 485 79 265 q 211 843 79 704 q 564 983 343 983 m 564 104 q 831 214 733 104 q 925 485 925 319 q 831 756 925 650 q 564 865 733 865 q 297 756 394 865 q 203 485 203 650 q 297 214 203 319 q 564 104 394 104 m 757 1197 q 789 1167 786 1197 q 757 1078 789 1118 q 672 1035 721 1035 q 583 1058 631 1035 q 510 1091 536 1081 q 461 1101 485 1101 q 404 1057 424 1101 q 372 1032 397 1032 q 350 1041 360 1032 q 340 1067 340 1050 q 349 1108 340 1085 q 372 1150 357 1131 q 457 1196 404 1196 q 514 1185 488 1196 q 566 1163 540 1175 q 617 1141 592 1151 q 668 1131 643 1131 q 704 1140 693 1131 q 721 1164 715 1150 q 757 1197 733 1197 z "},"Ö":{"ha":1126,"x_min":76,"x_max":1051,"o":"m 564 983 q 917 843 783 983 q 1051 485 1046 706 q 917 126 1046 264 q 564 -14 783 -14 q 211 126 343 -14 q 76 485 79 265 q 211 843 79 704 q 564 983 343 983 m 564 104 q 831 214 733 104 q 925 485 925 319 q 831 756 925 650 q 564 865 733 865 q 297 756 394 865 q 203 485 203 650 q 297 214 203 319 q 564 104 394 104 m 447 1179 q 497 1158 476 1179 q 518 1108 518 1138 q 497 1058 518 1079 q 447 1038 476 1038 q 397 1058 418 1038 q 376 1108 376 1079 q 397 1158 376 1138 q 447 1179 418 1179 m 682 1179 q 732 1158 711 1179 q 753 1108 753 1138 q 732 1058 753 1079 q 682 1038 711 1038 q 632 1058 653 1038 q 611 1108 611 1079 q 632 1158 611 1138 q 682 1179 653 1179 z "},"×":{"ha":782,"x_min":82,"x_max":699,"o":"m 82 614 q 97 651 82 635 q 133 667 111 667 q 172 650 156 667 l 390 432 l 608 650 q 647 667 625 667 q 684 651 669 667 q 699 614 699 635 q 682 576 699 593 l 464 358 l 682 140 q 699 103 699 124 q 684 66 699 82 q 647 50 669 50 q 608 67 625 50 l 390 285 l 172 67 q 133 50 156 50 q 97 66 111 50 q 82 103 82 82 q 99 140 82 124 l 317 358 l 99 576 q 82 614 82 593 z "},"Ø":{"ha":1126,"x_min":76,"x_max":1051,"o":"m 247 92 q 76 485 82 228 q 211 843 79 704 q 564 983 343 983 q 825 915 710 983 l 881 996 q 908 1010 890 1010 q 935 1000 925 1010 q 944 978 944 990 q 936 953 944 965 l 882 875 q 1005 708 961 808 q 1051 485 1049 608 q 917 126 1046 264 q 564 -14 783 -14 q 304 51 415 -14 l 249 -28 q 222 -42 239 -42 q 194 -32 204 -42 q 185 -10 185 -22 q 193 15 185 3 l 247 92 m 754 817 q 574 865 671 865 q 410 836 478 865 q 297 756 343 807 q 203 485 203 650 q 318 193 203 300 l 754 817 m 374 151 q 553 104 456 104 q 717 133 650 104 q 831 214 785 163 q 925 485 925 319 q 811 775 925 667 l 374 151 z "},"Ù":{"ha":1053,"x_min":128,"x_max":925,"o":"m 861 976 q 906 958 888 976 q 925 913 925 939 l 925 364 q 794 78 925 182 q 526 -14 682 -14 q 257 78 368 -14 q 128 364 128 182 l 128 913 q 146 958 128 939 q 190 976 164 976 q 235 958 217 976 q 254 913 254 939 l 254 360 q 339 165 254 236 q 526 101 417 101 q 714 165 636 101 q 799 360 799 236 l 799 913 q 817 958 799 939 q 861 976 835 976 m 418 1190 q 474 1242 418 1242 q 515 1215 501 1242 l 586 1090 q 596 1064 596 1081 q 585 1037 596 1047 q 558 1026 575 1026 q 528 1042 540 1026 l 432 1156 q 418 1190 418 1171 z "},"Ú":{"ha":1053,"x_min":128,"x_max":925,"o":"m 861 976 q 906 958 888 976 q 925 913 925 939 l 925 364 q 794 78 925 182 q 526 -14 682 -14 q 257 78 368 -14 q 128 364 128 182 l 128 913 q 146 958 128 939 q 190 976 164 976 q 235 958 217 976 q 254 913 254 939 l 254 360 q 339 165 254 236 q 526 101 417 101 q 714 165 636 101 q 799 360 799 236 l 799 913 q 817 958 799 939 q 861 976 835 976 m 538 1215 q 579 1242 551 1242 q 635 1190 635 1242 q 621 1156 635 1171 l 525 1042 q 495 1026 513 1026 q 467 1037 478 1026 q 457 1060 457 1047 q 467 1090 457 1081 l 538 1215 z "},"Û":{"ha":1053,"x_min":128,"x_max":925,"o":"m 861 976 q 906 958 888 976 q 925 913 925 939 l 925 364 q 794 78 925 182 q 526 -14 682 -14 q 257 78 368 -14 q 128 364 128 182 l 128 913 q 146 958 128 939 q 190 976 164 976 q 235 958 217 976 q 254 913 254 939 l 254 360 q 339 165 254 236 q 526 101 417 101 q 714 165 636 101 q 799 360 799 236 l 799 913 q 817 958 799 939 q 861 976 835 976 m 703 1093 q 714 1066 714 1082 q 702 1038 714 1050 q 674 1025 690 1025 q 647 1035 657 1025 l 526 1138 l 406 1035 q 379 1025 396 1025 q 351 1038 363 1025 q 339 1058 339 1050 q 339 1074 339 1065 q 350 1093 339 1082 l 444 1190 q 500 1218 472 1218 l 553 1218 q 608 1190 581 1218 l 703 1093 z "},"Ü":{"ha":1053,"x_min":128,"x_max":925,"o":"m 861 976 q 906 958 888 976 q 925 913 925 939 l 925 364 q 794 78 925 182 q 526 -14 682 -14 q 257 78 368 -14 q 128 364 128 182 l 128 913 q 146 958 128 939 q 190 976 164 976 q 235 958 217 976 q 254 913 254 939 l 254 360 q 339 165 254 236 q 526 101 417 101 q 714 165 636 101 q 799 360 799 236 l 799 913 q 817 958 799 939 q 861 976 835 976 m 410 1179 q 460 1158 439 1179 q 481 1108 481 1138 q 460 1058 481 1079 q 410 1038 439 1038 q 360 1058 381 1038 q 339 1108 339 1079 q 360 1158 339 1138 q 410 1179 381 1179 m 644 1179 q 694 1158 674 1179 q 715 1108 715 1138 q 694 1058 715 1079 q 644 1038 674 1038 q 594 1058 615 1038 q 574 1108 574 1079 q 594 1158 574 1138 q 644 1179 615 1179 z "},"Ý":{"ha":896,"x_min":42,"x_max":856,"o":"m 739 944 q 791 976 760 976 q 839 958 822 976 q 856 917 856 940 q 844 875 856 893 l 511 410 l 511 56 q 493 11 511 29 q 449 -7 475 -7 q 403 11 422 -7 q 385 56 385 29 l 385 410 l 53 875 q 42 917 42 893 q 58 958 42 940 q 106 976 75 976 q 158 944 138 976 l 449 522 l 739 944 m 472 1215 q 514 1242 486 1242 q 569 1190 569 1242 q 556 1156 569 1171 l 460 1042 q 430 1026 447 1026 q 402 1037 413 1026 q 392 1060 392 1047 q 401 1090 392 1081 l 472 1215 z "},"Þ":{"ha":932,"x_min":135,"x_max":885,"o":"m 514 814 q 804 714 707 814 q 885 506 885 633 q 804 297 885 378 q 514 197 707 197 l 261 197 l 261 56 q 242 11 261 29 q 197 -7 224 -7 q 153 11 171 -7 q 135 56 135 29 l 135 913 q 153 958 135 939 q 197 976 171 976 q 242 958 224 976 q 261 913 261 939 l 261 814 l 514 814 m 501 317 q 708 378 644 317 q 758 506 758 425 q 629 678 758 635 q 501 694 579 694 l 261 694 l 261 317 l 501 317 z "},"ß":{"ha":847,"x_min":110,"x_max":782,"o":"m 575 489 q 711 419 663 467 q 782 242 782 351 q 700 49 782 121 q 518 -14 628 -14 q 364 10 429 -14 q 319 63 319 25 q 335 101 319 86 q 367 117 350 117 q 410 108 383 117 q 476 99 436 99 q 544 105 517 99 q 596 128 571 111 q 656 257 656 169 q 588 383 656 336 q 417 429 522 429 q 378 443 392 429 q 364 479 364 457 q 378 515 364 501 q 417 532 393 529 q 552 586 503 542 q 601 703 601 631 q 553 821 601 776 q 422 865 506 865 q 253 761 296 865 q 236 660 236 722 l 236 57 q 217 13 236 31 q 172 -6 199 -6 q 128 13 146 -6 q 110 57 110 31 l 110 675 q 197 903 110 821 q 424 983 282 983 q 628 918 543 983 q 728 711 728 843 q 631 514 728 571 q 575 489 603 497 z "},"à":{"ha":771,"x_min":53,"x_max":667,"o":"m 136 672 q 378 722 253 722 q 597 636 519 722 q 667 449 667 561 l 667 56 q 648 11 667 29 q 603 -7 629 -7 q 558 11 576 -7 q 540 56 540 29 l 540 92 q 440 19 503 53 q 279 -14 376 -14 q 119 42 183 -14 q 53 194 53 100 q 131 356 53 297 q 372 419 215 419 l 540 419 l 540 431 q 494 563 540 524 q 354 603 449 603 q 169 569 274 603 q 144 567 158 567 q 115 581 131 567 q 100 626 100 596 q 136 672 100 657 m 179 208 q 326 97 179 97 q 448 129 392 97 q 540 201 504 161 l 540 318 l 389 318 q 235 293 290 318 q 179 208 179 268 m 263 951 q 318 1003 263 1003 q 360 976 346 1003 l 431 851 q 440 825 440 842 q 430 798 440 808 q 402 788 419 788 q 372 803 385 788 l 276 917 q 263 951 263 932 z "},"á":{"ha":771,"x_min":53,"x_max":667,"o":"m 136 672 q 378 722 253 722 q 597 636 519 722 q 667 449 667 561 l 667 56 q 648 11 667 29 q 603 -7 629 -7 q 558 11 576 -7 q 540 56 540 29 l 540 92 q 440 19 503 53 q 279 -14 376 -14 q 119 42 183 -14 q 53 194 53 100 q 131 356 53 297 q 372 419 215 419 l 540 419 l 540 431 q 494 563 540 524 q 354 603 449 603 q 169 569 274 603 q 144 567 158 567 q 115 581 131 567 q 100 626 100 596 q 136 672 100 657 m 179 208 q 326 97 179 97 q 448 129 392 97 q 540 201 504 161 l 540 318 l 389 318 q 235 293 290 318 q 179 208 179 268 m 392 976 q 433 1003 406 1003 q 489 951 489 1003 q 475 917 489 932 l 379 803 q 349 788 367 788 q 322 798 332 788 q 311 821 311 808 q 321 851 311 842 l 392 976 z "},"â":{"ha":771,"x_min":53,"x_max":667,"o":"m 136 672 q 378 722 253 722 q 597 636 519 722 q 667 449 667 561 l 667 56 q 648 11 667 29 q 603 -7 629 -7 q 558 11 576 -7 q 540 56 540 29 l 540 92 q 440 19 503 53 q 279 -14 376 -14 q 119 42 183 -14 q 53 194 53 100 q 131 356 53 297 q 372 419 215 419 l 540 419 l 540 431 q 494 563 540 524 q 354 603 449 603 q 169 569 274 603 q 144 567 158 567 q 115 581 131 567 q 100 626 100 596 q 136 672 100 657 m 179 208 q 326 97 179 97 q 448 129 392 97 q 540 201 504 161 l 540 318 l 389 318 q 235 293 290 318 q 179 208 179 268 m 556 854 q 567 827 567 843 q 555 799 567 811 q 526 786 543 786 q 500 796 510 786 l 379 899 l 258 796 q 232 786 249 786 q 203 799 215 786 q 192 819 192 811 q 192 835 192 826 q 203 854 192 843 l 297 951 q 353 979 325 979 l 406 979 q 461 951 433 979 l 556 854 z "},"ã":{"ha":771,"x_min":53,"x_max":667,"o":"m 136 672 q 378 722 253 722 q 597 636 519 722 q 667 449 667 561 l 667 56 q 648 11 667 29 q 603 -7 629 -7 q 558 11 576 -7 q 540 56 540 29 l 540 92 q 440 19 503 53 q 279 -14 376 -14 q 119 42 183 -14 q 53 194 53 100 q 131 356 53 297 q 372 419 215 419 l 540 419 l 540 431 q 494 563 540 524 q 354 603 449 603 q 169 569 274 603 q 144 567 158 567 q 115 581 131 567 q 100 626 100 596 q 136 672 100 657 m 179 208 q 326 97 179 97 q 448 129 392 97 q 540 201 504 161 l 540 318 l 389 318 q 235 293 290 318 q 179 208 179 268 m 568 958 q 600 928 597 958 q 568 839 600 879 q 483 796 532 796 q 394 819 442 796 q 322 852 347 842 q 272 863 296 863 q 215 818 235 863 q 183 793 208 793 q 161 802 171 793 q 151 828 151 811 q 160 869 151 846 q 183 911 168 892 q 268 957 215 957 q 325 947 299 957 q 377 924 351 936 q 428 902 403 913 q 479 892 454 892 q 515 901 504 892 q 532 925 526 911 q 568 958 544 958 z "},"ä":{"ha":771,"x_min":53,"x_max":667,"o":"m 136 672 q 378 722 253 722 q 597 636 519 722 q 667 449 667 561 l 667 56 q 648 11 667 29 q 603 -7 629 -7 q 558 11 576 -7 q 540 56 540 29 l 540 92 q 440 19 503 53 q 279 -14 376 -14 q 119 42 183 -14 q 53 194 53 100 q 131 356 53 297 q 372 419 215 419 l 540 419 l 540 431 q 494 563 540 524 q 354 603 449 603 q 169 569 274 603 q 144 567 158 567 q 115 581 131 567 q 100 626 100 596 q 136 672 100 657 m 179 208 q 326 97 179 97 q 448 129 392 97 q 540 201 504 161 l 540 318 l 389 318 q 235 293 290 318 q 179 208 179 268 m 264 940 q 314 919 293 940 q 335 869 335 899 q 314 819 335 840 q 264 799 293 799 q 214 819 235 799 q 193 869 193 840 q 214 919 193 899 q 264 940 235 940 m 499 940 q 549 919 528 940 q 569 869 569 899 q 549 819 569 840 q 499 799 528 799 q 449 819 469 799 q 428 869 428 840 q 449 919 428 899 q 499 940 469 940 z "},"å":{"ha":771,"x_min":53,"x_max":667,"o":"m 136 672 q 378 722 253 722 q 597 636 519 722 q 667 449 667 561 l 667 56 q 648 11 667 29 q 603 -7 629 -7 q 558 11 576 -7 q 540 56 540 29 l 540 92 q 440 19 503 53 q 279 -14 376 -14 q 119 42 183 -14 q 53 194 53 100 q 131 356 53 297 q 372 419 215 419 l 540 419 l 540 431 q 494 563 540 524 q 354 603 449 603 q 169 569 274 603 q 144 567 158 567 q 115 581 131 567 q 100 626 100 596 q 136 672 100 657 m 179 208 q 326 97 179 97 q 448 129 392 97 q 540 201 504 161 l 540 318 l 389 318 q 235 293 290 318 q 179 208 179 268 m 372 1026 q 424 1016 400 1026 q 467 989 449 1006 q 504 896 504 950 q 466 803 504 842 q 374 765 428 765 q 281 803 319 765 q 243 896 243 842 q 281 988 243 950 q 372 1026 319 1026 m 374 828 q 422 848 401 828 q 442 896 442 868 q 422 944 442 924 q 374 964 401 964 q 326 944 346 964 q 306 896 306 924 q 326 848 306 868 q 374 828 346 828 z "},"æ":{"ha":1256,"x_min":51,"x_max":1196,"o":"m 613 606 q 864 722 701 722 q 1108 622 1017 722 q 1196 374 1196 526 q 1180 332 1196 350 q 1135 314 1164 314 l 657 314 q 903 104 682 104 q 1090 147 1004 104 q 1119 153 1101 153 q 1154 138 1138 153 q 1171 103 1171 122 q 1141 51 1171 67 q 1088 24 1111 35 q 1036 4 1064 13 q 892 -14 974 -14 q 610 107 701 -14 q 324 -14 529 -14 q 132 42 208 -14 q 51 194 51 99 q 229 400 51 351 q 371 415 289 415 l 539 415 l 539 431 q 493 563 539 524 q 353 603 447 603 q 168 569 272 603 q 143 567 157 567 q 114 581 129 567 q 99 626 99 596 q 142 675 99 657 q 375 722 251 722 q 613 606 540 722 m 539 314 l 388 314 q 233 291 289 314 q 178 208 178 268 q 221 131 178 164 q 349 97 264 97 q 522 167 478 97 q 539 235 539 193 l 539 314 m 1071 415 q 997 569 1065 515 q 864 615 940 615 q 731 569 788 615 q 657 415 663 515 l 1071 415 z "},"ç":{"ha":746,"x_min":64,"x_max":689,"o":"m 378 -247 q 457 -183 457 -247 q 442 -151 457 -162 q 410 -140 428 -140 q 360 -149 376 -140 q 330 -160 338 -160 q 315 -153 322 -160 q 307 -137 307 -147 q 313 -118 307 -126 l 379 -10 q 156 101 243 8 q 64 354 64 201 q 175 625 64 522 q 435 722 281 722 q 572 701 518 722 q 657 658 625 679 q 689 613 689 638 q 674 569 689 588 q 643 551 658 551 q 594 565 619 551 q 446 604 524 604 q 257 535 324 604 q 190 354 190 467 q 257 173 190 242 q 446 104 324 104 q 535 117 500 104 q 592 142 569 129 q 640 157 621 157 q 674 139 658 157 q 689 96 689 121 q 657 50 689 71 q 438 -14 563 -11 l 396 -87 q 454 -82 418 -82 q 520 -108 490 -82 q 550 -179 550 -135 q 396 -307 550 -307 q 271 -271 329 -307 q 256 -247 256 -264 q 282 -219 256 -219 q 296 -224 288 -219 q 378 -247 339 -247 z "},"è":{"ha":792,"x_min":68,"x_max":731,"o":"m 196 310 q 267 160 207 215 q 433 104 326 104 q 613 140 540 104 q 656 153 638 153 q 690 138 674 153 q 707 103 707 122 q 677 51 707 67 q 624 24 647 35 q 572 4 600 13 q 428 -14 510 -14 q 163 82 257 -14 q 68 354 68 178 q 147 608 68 507 q 400 722 236 722 q 646 617 556 722 q 731 372 731 518 q 713 328 731 346 q 667 310 696 310 l 196 310 m 400 615 q 219 506 276 615 q 196 413 199 467 l 606 413 q 533 568 600 511 q 400 615 478 615 m 290 951 q 346 1003 290 1003 q 388 976 374 1003 l 458 851 q 468 825 468 842 q 458 798 468 808 q 430 788 447 788 q 400 803 413 788 l 304 917 q 290 951 290 932 z "},"é":{"ha":792,"x_min":68,"x_max":731,"o":"m 196 310 q 267 160 207 215 q 433 104 326 104 q 613 140 540 104 q 656 153 638 153 q 690 138 674 153 q 707 103 707 122 q 677 51 707 67 q 624 24 647 35 q 572 4 600 13 q 428 -14 510 -14 q 163 82 257 -14 q 68 354 68 178 q 147 608 68 507 q 400 722 236 722 q 646 617 556 722 q 731 372 731 518 q 713 328 731 346 q 667 310 696 310 l 196 310 m 400 615 q 219 506 276 615 q 196 413 199 467 l 606 413 q 533 568 600 511 q 400 615 478 615 m 411 976 q 453 1003 425 1003 q 508 951 508 1003 q 494 917 508 932 l 399 803 q 369 788 386 788 q 341 798 351 788 q 331 821 331 808 q 340 851 331 842 l 411 976 z "},"ê":{"ha":792,"x_min":68,"x_max":731,"o":"m 196 310 q 267 160 207 215 q 433 104 326 104 q 613 140 540 104 q 656 153 638 153 q 690 138 674 153 q 707 103 707 122 q 677 51 707 67 q 624 24 647 35 q 572 4 600 13 q 428 -14 510 -14 q 163 82 257 -14 q 68 354 68 178 q 147 608 68 507 q 400 722 236 722 q 646 617 556 722 q 731 372 731 518 q 713 328 731 346 q 667 310 696 310 l 196 310 m 400 615 q 219 506 276 615 q 196 413 199 467 l 606 413 q 533 568 600 511 q 400 615 478 615 m 575 854 q 586 827 586 843 q 574 799 586 811 q 546 786 563 786 q 519 796 529 786 l 399 899 l 278 796 q 251 786 268 786 q 223 799 235 786 q 211 819 211 811 q 211 835 211 826 q 222 854 211 843 l 317 951 q 372 979 344 979 l 425 979 q 481 951 453 979 l 575 854 z "},"ë":{"ha":792,"x_min":68,"x_max":731,"o":"m 196 310 q 267 160 207 215 q 433 104 326 104 q 613 140 540 104 q 656 153 638 153 q 690 138 674 153 q 707 103 707 122 q 677 51 707 67 q 624 24 647 35 q 572 4 600 13 q 428 -14 510 -14 q 163 82 257 -14 q 68 354 68 178 q 147 608 68 507 q 400 722 236 722 q 646 617 556 722 q 731 372 731 518 q 713 328 731 346 q 667 310 696 310 l 196 310 m 400 615 q 219 506 276 615 q 196 413 199 467 l 606 413 q 533 568 600 511 q 400 615 478 615 m 282 940 q 332 919 311 940 q 353 869 353 899 q 332 819 353 840 q 282 799 311 799 q 232 819 253 799 q 211 869 211 840 q 232 919 211 899 q 282 940 253 940 m 517 940 q 567 919 546 940 q 588 869 588 899 q 567 819 588 840 q 517 799 546 799 q 467 819 488 799 q 446 869 446 840 q 467 919 446 899 q 517 940 488 940 z "},"ì":{"ha":357,"x_min":58,"x_max":242,"o":"m 115 651 q 133 697 115 679 q 178 715 151 715 q 224 697 206 715 q 242 651 242 679 l 242 56 q 224 11 242 29 q 178 -7 206 -7 q 133 11 151 -7 q 115 56 115 29 l 115 651 m 58 951 q 114 1003 58 1003 q 156 976 142 1003 l 226 851 q 236 825 236 842 q 226 798 236 808 q 198 788 215 788 q 168 803 181 788 l 72 917 q 58 951 58 932 z "},"í":{"ha":357,"x_min":115,"x_max":299,"o":"m 115 651 q 133 697 115 679 q 178 715 151 715 q 224 697 206 715 q 242 651 242 679 l 242 56 q 224 11 242 29 q 178 -7 206 -7 q 133 11 151 -7 q 115 56 115 29 l 115 651 m 201 976 q 243 1003 215 1003 q 299 951 299 1003 q 285 917 299 932 l 189 803 q 159 788 176 788 q 131 798 142 788 q 121 821 121 808 q 131 851 121 842 l 201 976 z "},"î":{"ha":357,"x_min":-10,"x_max":365,"o":"m 115 651 q 133 697 115 679 q 178 715 151 715 q 224 697 206 715 q 242 651 242 679 l 242 56 q 224 11 242 29 q 178 -7 206 -7 q 133 11 151 -7 q 115 56 115 29 l 115 651 m 354 854 q 365 827 365 843 q 353 799 365 811 q 325 786 342 786 q 299 796 308 786 l 178 899 l 57 796 q 31 786 47 786 q 2 799 14 786 q -10 819 -10 811 q -10 835 -10 826 q 1 854 -10 843 l 96 951 q 151 979 124 979 l 204 979 q 260 951 232 979 l 354 854 z "},"ï":{"ha":357,"x_min":-10,"x_max":367,"o":"m 115 651 q 133 697 115 679 q 178 715 151 715 q 224 697 206 715 q 242 651 242 679 l 242 56 q 224 11 242 29 q 178 -7 206 -7 q 133 11 151 -7 q 115 56 115 29 l 115 651 m 61 940 q 111 919 90 940 q 132 869 132 899 q 111 819 132 840 q 61 799 90 799 q 11 819 32 799 q -10 869 -10 840 q 11 919 -10 899 q 61 940 32 940 m 296 940 q 346 919 325 940 q 367 869 367 899 q 346 819 367 840 q 296 799 325 799 q 246 819 267 799 q 225 869 225 840 q 246 919 225 899 q 296 940 267 940 z "},"ð":{"ha":832,"x_min":68,"x_max":758,"o":"m 550 663 q 401 825 493 746 l 285 757 q 257 749 268 749 q 236 758 246 749 q 226 786 226 768 q 247 815 226 804 l 342 871 q 251 930 278 915 q 216 958 224 944 q 208 991 208 971 q 226 1028 208 1011 q 263 1044 243 1044 q 304 1031 282 1044 q 447 932 379 986 l 542 989 q 565 996 553 996 q 588 986 578 996 q 597 958 597 976 q 581 931 597 940 l 503 885 q 758 381 758 651 q 572 17 758 106 q 420 -14 506 -14 q 271 12 335 -14 q 161 85 207 38 q 68 344 68 183 q 153 592 68 492 q 393 701 244 701 q 550 663 475 701 m 413 97 q 563 156 501 97 q 636 350 636 224 q 563 542 636 474 q 413 599 503 599 q 263 542 322 599 q 190 350 190 475 q 263 156 190 222 q 413 97 324 97 z "},"ñ":{"ha":846,"x_min":110,"x_max":743,"o":"m 464 606 q 236 472 342 606 l 236 56 q 217 11 236 29 q 172 -7 199 -7 q 128 11 146 -7 q 110 56 110 29 l 110 651 q 128 697 110 679 q 172 715 146 715 q 217 697 199 715 q 236 651 236 679 l 236 594 q 332 676 292 653 q 483 722 411 722 q 600 701 554 722 q 678 642 646 679 q 743 450 743 565 l 743 56 q 724 11 743 29 q 679 -7 706 -7 q 635 11 653 -7 q 617 56 617 29 l 617 436 q 581 560 617 515 q 464 606 546 606 m 624 958 q 656 928 653 958 q 624 839 656 879 q 539 796 588 796 q 450 819 497 796 q 377 852 403 842 q 328 863 351 863 q 271 818 290 863 q 239 793 264 793 q 217 802 226 793 q 207 828 207 811 q 215 869 207 846 q 239 911 224 892 q 324 957 271 957 q 381 947 354 957 q 433 924 407 936 q 484 902 458 913 q 535 892 510 892 q 571 901 560 892 q 588 925 582 911 q 624 958 600 958 z "},"ò":{"ha":844,"x_min":67,"x_max":778,"o":"m 422 722 q 681 621 583 722 q 778 354 778 518 q 681 88 778 190 q 422 -14 583 -14 q 164 88 260 -14 q 67 354 67 189 q 164 621 67 519 q 422 722 260 722 m 267 159 q 284 144 267 159 q 341 115 300 129 q 422 101 382 101 q 502 115 461 101 q 576 158 543 129 q 651 356 651 226 q 576 550 651 481 q 422 607 514 607 q 214 472 272 607 q 193 355 193 424 q 214 238 193 286 q 267 159 235 189 m 303 951 q 358 1003 303 1003 q 400 976 386 1003 l 471 851 q 481 825 481 842 q 470 798 481 808 q 442 788 460 788 q 413 803 425 788 l 317 917 q 303 951 303 932 z "},"ó":{"ha":844,"x_min":67,"x_max":778,"o":"m 422 722 q 681 621 583 722 q 778 354 778 518 q 681 88 778 190 q 422 -14 583 -14 q 164 88 260 -14 q 67 354 67 189 q 164 621 67 519 q 422 722 260 722 m 267 159 q 284 144 267 159 q 341 115 300 129 q 422 101 382 101 q 502 115 461 101 q 576 158 543 129 q 651 356 651 226 q 576 550 651 481 q 422 607 514 607 q 214 472 272 607 q 193 355 193 424 q 214 238 193 286 q 267 159 235 189 m 444 976 q 486 1003 458 1003 q 542 951 542 1003 q 528 917 542 932 l 432 803 q 402 788 419 788 q 374 798 385 788 q 364 821 364 808 q 374 851 364 842 l 444 976 z "},"ô":{"ha":844,"x_min":67,"x_max":778,"o":"m 422 722 q 681 621 583 722 q 778 354 778 518 q 681 88 778 190 q 422 -14 583 -14 q 164 88 260 -14 q 67 354 67 189 q 164 621 67 519 q 422 722 260 722 m 267 159 q 284 144 267 159 q 341 115 300 129 q 422 101 382 101 q 502 115 461 101 q 576 158 543 129 q 651 356 651 226 q 576 550 651 481 q 422 607 514 607 q 214 472 272 607 q 193 355 193 424 q 214 238 193 286 q 267 159 235 189 m 599 854 q 610 827 610 843 q 598 799 610 811 q 569 786 586 786 q 543 796 553 786 l 422 899 l 301 796 q 275 786 292 786 q 247 799 258 786 q 235 819 235 811 q 235 835 235 826 q 246 854 235 843 l 340 951 q 396 979 368 979 l 449 979 q 504 951 476 979 l 599 854 z "},"õ":{"ha":844,"x_min":67,"x_max":778,"o":"m 422 722 q 681 621 583 722 q 778 354 778 518 q 681 88 778 190 q 422 -14 583 -14 q 164 88 260 -14 q 67 354 67 189 q 164 621 67 519 q 422 722 260 722 m 267 159 q 284 144 267 159 q 341 115 300 129 q 422 101 382 101 q 502 115 461 101 q 576 158 543 129 q 651 356 651 226 q 576 550 651 481 q 422 607 514 607 q 214 472 272 607 q 193 355 193 424 q 214 238 193 286 q 267 159 235 189 m 617 958 q 649 928 646 958 q 617 839 649 879 q 532 796 581 796 q 443 819 490 796 q 370 852 396 842 q 321 863 344 863 q 264 818 283 863 q 232 793 257 793 q 210 802 219 793 q 200 828 200 811 q 208 869 200 846 q 232 911 217 892 q 317 957 264 957 q 374 947 347 957 q 426 924 400 936 q 477 902 451 913 q 528 892 503 892 q 564 901 553 892 q 581 925 575 911 q 617 958 593 958 z "},"ö":{"ha":844,"x_min":67,"x_max":778,"o":"m 422 722 q 681 621 583 722 q 778 354 778 518 q 681 88 778 190 q 422 -14 583 -14 q 164 88 260 -14 q 67 354 67 189 q 164 621 67 519 q 422 722 260 722 m 267 159 q 284 144 267 159 q 341 115 300 129 q 422 101 382 101 q 502 115 461 101 q 576 158 543 129 q 651 356 651 226 q 576 550 651 481 q 422 607 514 607 q 214 472 272 607 q 193 355 193 424 q 214 238 193 286 q 267 159 235 189 m 306 940 q 356 919 335 940 q 376 869 376 899 q 356 819 376 840 q 306 799 335 799 q 256 819 276 799 q 235 869 235 840 q 256 919 235 899 q 306 940 276 940 m 540 940 q 590 919 569 940 q 611 869 611 899 q 590 819 611 840 q 540 799 569 799 q 490 819 511 799 q 469 869 469 840 q 490 919 469 899 q 540 940 511 940 z "},"÷":{"ha":989,"x_min":101,"x_max":888,"o":"m 494 274 q 544 253 524 274 q 565 203 565 232 q 544 153 565 174 q 494 132 524 132 q 444 153 465 132 q 424 203 424 174 q 444 253 424 232 q 494 274 465 274 m 494 646 q 444 667 465 646 q 424 717 424 688 q 444 767 424 746 q 494 788 465 788 q 544 767 524 788 q 565 717 565 746 q 544 667 565 688 q 494 646 524 646 m 831 517 q 871 500 854 517 q 888 460 888 483 q 871 420 888 436 q 831 404 854 404 l 157 404 q 117 420 133 404 q 101 460 101 436 q 117 500 101 483 q 157 517 133 517 l 831 517 z "},"ø":{"ha":844,"x_min":67,"x_max":778,"o":"m 181 71 q 67 354 67 174 q 164 621 67 519 q 422 722 260 722 q 606 678 519 722 l 646 735 q 673 749 656 749 q 700 739 690 749 q 710 717 710 729 q 701 692 710 704 l 663 636 q 778 354 778 535 q 681 88 778 190 q 422 -14 583 -14 q 238 31 318 -14 l 196 -29 q 169 -43 186 -43 q 142 -33 151 -43 q 132 -11 132 -24 q 140 14 132 1 l 181 71 m 253 174 l 536 578 q 432 607 482 607 q 341 594 382 607 q 267 550 300 581 q 193 360 193 481 q 253 174 193 239 m 308 131 q 411 101 361 101 q 502 115 461 101 q 576 158 543 129 q 651 356 651 226 q 592 535 651 465 l 308 131 z "},"ù":{"ha":847,"x_min":104,"x_max":738,"o":"m 383 103 q 611 236 506 103 l 611 653 q 630 697 611 679 q 675 715 649 715 q 719 697 701 715 q 738 653 738 679 l 738 57 q 719 11 738 29 q 675 -7 701 -7 q 630 11 649 -7 q 611 57 611 29 l 611 114 q 515 32 556 56 q 365 -14 436 -14 q 247 8 293 -14 q 169 67 201 29 q 104 258 104 143 l 104 653 q 123 697 104 679 q 168 715 142 715 q 213 697 194 715 q 231 653 231 679 l 231 272 q 266 148 231 193 q 383 103 301 103 m 301 951 q 357 1003 301 1003 q 399 976 385 1003 l 469 851 q 479 825 479 842 q 469 798 479 808 q 441 788 458 788 q 411 803 424 788 l 315 917 q 301 951 301 932 z "},"ú":{"ha":847,"x_min":104,"x_max":738,"o":"m 383 103 q 611 236 506 103 l 611 653 q 630 697 611 679 q 675 715 649 715 q 719 697 701 715 q 738 653 738 679 l 738 57 q 719 11 738 29 q 675 -7 701 -7 q 630 11 649 -7 q 611 57 611 29 l 611 114 q 515 32 556 56 q 365 -14 436 -14 q 247 8 293 -14 q 169 67 201 29 q 104 258 104 143 l 104 653 q 123 697 104 679 q 168 715 142 715 q 213 697 194 715 q 231 653 231 679 l 231 272 q 266 148 231 193 q 383 103 301 103 m 443 976 q 485 1003 457 1003 q 540 951 540 1003 q 526 917 540 932 l 431 803 q 401 788 418 788 q 373 798 383 788 q 363 821 363 808 q 372 851 363 842 l 443 976 z "},"û":{"ha":847,"x_min":104,"x_max":738,"o":"m 383 103 q 611 236 506 103 l 611 653 q 630 697 611 679 q 675 715 649 715 q 719 697 701 715 q 738 653 738 679 l 738 57 q 719 11 738 29 q 675 -7 701 -7 q 630 11 649 -7 q 611 57 611 29 l 611 114 q 515 32 556 56 q 365 -14 436 -14 q 247 8 293 -14 q 169 67 201 29 q 104 258 104 143 l 104 653 q 123 697 104 679 q 168 715 142 715 q 213 697 194 715 q 231 653 231 679 l 231 272 q 266 148 231 193 q 383 103 301 103 m 597 854 q 608 827 608 843 q 597 799 608 811 q 568 786 585 786 q 542 796 551 786 l 421 899 l 300 796 q 274 786 290 786 q 245 799 257 786 q 233 819 233 811 q 233 835 233 826 q 244 854 233 843 l 339 951 q 394 979 367 979 l 447 979 q 503 951 475 979 l 597 854 z "},"ü":{"ha":847,"x_min":104,"x_max":738,"o":"m 383 103 q 611 236 506 103 l 611 653 q 630 697 611 679 q 675 715 649 715 q 719 697 701 715 q 738 653 738 679 l 738 57 q 719 11 738 29 q 675 -7 701 -7 q 630 11 649 -7 q 611 57 611 29 l 611 114 q 515 32 556 56 q 365 -14 436 -14 q 247 8 293 -14 q 169 67 201 29 q 104 258 104 143 l 104 653 q 123 697 104 679 q 168 715 142 715 q 213 697 194 715 q 231 653 231 679 l 231 272 q 266 148 231 193 q 383 103 301 103 m 304 940 q 354 919 333 940 q 375 869 375 899 q 354 819 375 840 q 304 799 333 799 q 254 819 275 799 q 233 869 233 840 q 254 919 233 899 q 304 940 275 940 m 539 940 q 589 919 568 940 q 610 869 610 899 q 589 819 610 840 q 539 799 568 799 q 489 819 510 799 q 468 869 468 840 q 489 919 468 899 q 539 940 510 940 z "},"ý":{"ha":740,"x_min":33,"x_max":707,"o":"m 644 715 q 689 697 671 715 q 707 658 707 678 q 703 628 707 638 l 324 -283 q 265 -326 306 -326 q 223 -308 240 -326 q 206 -272 206 -290 q 210 -243 206 -254 l 300 -11 l 39 625 q 33 658 33 639 q 51 697 33 678 q 92 715 69 715 q 154 676 138 715 l 368 146 l 586 674 q 644 715 604 715 m 392 976 q 433 1003 406 1003 q 489 951 489 1003 q 475 917 489 932 l 379 803 q 349 788 367 788 q 322 798 332 788 q 311 821 311 808 q 321 851 311 842 l 392 976 z "},"þ":{"ha":876,"x_min":110,"x_max":810,"o":"m 236 617 q 474 722 339 722 q 704 626 608 722 q 810 354 810 521 q 704 81 810 185 q 473 -14 607 -14 q 236 92 339 -14 l 236 -262 q 218 -308 236 -290 q 173 -326 200 -326 q 128 -308 146 -326 q 110 -262 110 -290 l 110 957 q 128 1003 110 985 q 173 1021 146 1021 q 218 1003 200 1021 q 236 957 236 985 l 236 617 m 236 208 q 456 104 331 104 q 667 246 614 104 q 683 354 683 293 q 619 542 683 474 q 456 604 558 604 q 236 500 331 604 l 236 208 z "},"ÿ":{"ha":740,"x_min":33,"x_max":707,"o":"m 644 715 q 689 697 671 715 q 707 658 707 678 q 703 628 707 638 l 324 -283 q 265 -326 306 -326 q 223 -308 240 -326 q 206 -272 206 -290 q 210 -243 206 -254 l 300 -11 l 39 625 q 33 658 33 639 q 51 697 33 678 q 92 715 69 715 q 154 676 138 715 l 368 146 l 586 674 q 644 715 604 715 m 251 940 q 301 919 281 940 q 322 869 322 899 q 301 819 322 840 q 251 799 281 799 q 201 819 222 799 q 181 869 181 840 q 201 919 181 899 q 251 940 222 940 m 486 940 q 536 919 515 940 q 557 869 557 899 q 536 819 557 840 q 486 799 515 799 q 436 819 457 799 q 415 869 415 840 q 436 919 415 899 q 486 940 457 940 z "},"ſ":{"ha":399,"x_min":26,"x_max":524,"o":"m 472 899 l 403 907 q 319 883 350 907 q 289 785 289 858 l 289 56 q 271 11 289 29 q 226 -7 253 -7 q 181 11 199 -7 q 163 56 163 29 l 163 600 l 81 600 q 42 615 57 600 q 26 654 26 631 q 42 693 26 678 q 81 708 57 708 l 163 708 l 163 789 q 231 975 163 910 q 371 1028 286 1028 q 492 1000 436 1028 q 524 957 524 982 q 509 915 524 932 q 472 899 494 899 z "},"ƒ":{"ha":560,"x_min":-74,"x_max":617,"o":"m 494 1036 q 574 1024 549 1036 q 617 974 617 1003 q 601 928 617 944 q 567 913 585 913 q 532 917 549 913 q 476 921 515 921 q 403 897 438 921 q 360 799 369 872 l 331 593 l 493 593 q 524 580 513 593 q 536 549 536 567 q 524 519 536 531 q 493 507 511 507 l 319 507 l 250 17 q 157 -167 232 -106 q 8 -217 94 -217 l -17 -217 q -57 -200 -40 -217 q -74 -160 -74 -183 q -57 -119 -74 -136 q -17 -101 -40 -101 l -7 -101 q 72 -83 49 -101 q 124 21 113 -50 l 192 507 l 83 507 q 52 519 64 507 q 40 550 40 532 q 53 581 40 568 q 83 593 65 593 l 204 593 l 233 803 q 328 986 251 925 q 494 1036 390 1036 z "},"Ǽ":{"ha":1444,"x_min":3,"x_max":1372,"o":"m 1313 118 q 1355 101 1338 118 q 1372 58 1372 83 q 1355 17 1372 33 q 1313 0 1338 0 l 756 0 q 711 18 729 0 q 693 63 693 36 l 693 249 l 265 249 l 124 29 q 69 -7 100 -7 q 21 11 39 -7 q 3 47 3 29 q 17 94 3 75 l 571 935 q 635 969 596 969 l 1313 969 q 1355 952 1338 969 q 1372 910 1372 935 q 1355 868 1372 885 q 1313 851 1338 851 l 819 851 l 819 544 l 1263 544 q 1305 527 1288 544 q 1322 485 1322 510 q 1305 443 1322 460 q 1263 426 1288 426 l 819 426 l 819 118 l 1313 118 m 693 851 l 658 851 l 340 364 l 693 364 l 693 851 m 756 1215 q 797 1242 769 1242 q 853 1190 853 1242 q 839 1156 853 1171 l 743 1042 q 713 1026 731 1026 q 685 1037 696 1026 q 675 1060 675 1047 q 685 1090 675 1081 l 756 1215 z "},"ǽ":{"ha":1256,"x_min":51,"x_max":1196,"o":"m 613 606 q 864 722 701 722 q 1108 622 1017 722 q 1196 374 1196 526 q 1180 332 1196 350 q 1135 314 1164 314 l 657 314 q 903 104 682 104 q 1090 147 1004 104 q 1119 153 1101 153 q 1154 138 1138 153 q 1171 103 1171 122 q 1141 51 1171 67 q 1088 24 1111 35 q 1036 4 1064 13 q 892 -14 974 -14 q 610 107 701 -14 q 324 -14 529 -14 q 132 42 208 -14 q 51 194 51 99 q 229 400 51 351 q 371 415 289 415 l 539 415 l 539 431 q 493 563 539 524 q 353 603 447 603 q 168 569 272 603 q 143 567 157 567 q 114 581 129 567 q 99 626 99 596 q 142 675 99 657 q 375 722 251 722 q 613 606 540 722 m 539 314 l 388 314 q 233 291 289 314 q 178 208 178 268 q 221 131 178 164 q 349 97 264 97 q 522 167 478 97 q 539 235 539 193 l 539 314 m 1071 415 q 997 569 1065 515 q 864 615 940 615 q 731 569 788 615 q 657 415 663 515 l 1071 415 m 639 976 q 681 1003 653 1003 q 736 951 736 1003 q 722 917 736 932 l 626 803 q 597 788 614 788 q 569 798 579 788 q 558 821 558 808 q 568 851 558 842 l 639 976 z "},"Ǿ":{"ha":1126,"x_min":76,"x_max":1051,"o":"m 247 92 q 76 485 82 228 q 211 843 79 704 q 564 983 343 983 q 825 915 710 983 l 881 996 q 908 1010 890 1010 q 935 1000 925 1010 q 944 978 944 990 q 936 953 944 965 l 882 875 q 1005 708 961 808 q 1051 485 1049 608 q 917 126 1046 264 q 564 -14 783 -14 q 304 51 415 -14 l 249 -28 q 222 -42 239 -42 q 194 -32 204 -42 q 185 -10 185 -22 q 193 15 185 3 l 247 92 m 754 817 q 574 865 671 865 q 410 836 478 865 q 297 756 343 807 q 203 485 203 650 q 318 193 203 300 l 754 817 m 374 151 q 553 104 456 104 q 717 133 650 104 q 831 214 785 163 q 925 485 925 319 q 811 775 925 667 l 374 151 m 583 1215 q 625 1242 597 1242 q 681 1190 681 1242 q 667 1156 681 1171 l 571 1042 q 541 1026 558 1026 q 513 1037 524 1026 q 503 1060 503 1047 q 513 1090 503 1081 l 583 1215 z "},"ǿ":{"ha":844,"x_min":67,"x_max":778,"o":"m 181 71 q 67 354 67 174 q 164 621 67 519 q 422 722 260 722 q 606 678 519 722 l 646 735 q 673 749 656 749 q 700 739 690 749 q 710 717 710 729 q 701 692 710 704 l 663 636 q 778 354 778 535 q 681 88 778 190 q 422 -14 583 -14 q 238 31 318 -14 l 196 -29 q 169 -43 186 -43 q 142 -33 151 -43 q 132 -11 132 -24 q 140 14 132 1 l 181 71 m 253 174 l 536 578 q 432 607 482 607 q 341 594 382 607 q 267 550 300 581 q 193 360 193 481 q 253 174 193 239 m 308 131 q 411 101 361 101 q 502 115 461 101 q 576 158 543 129 q 651 356 651 226 q 592 535 651 465 l 308 131 m 444 976 q 486 1003 458 1003 q 542 951 542 1003 q 528 917 542 932 l 432 803 q 402 788 419 788 q 374 798 385 788 q 364 821 364 808 q 374 851 364 842 l 444 976 z "},"Ș":{"ha":857,"x_min":71,"x_max":796,"o":"m 442 -65 q 490 -86 469 -65 q 511 -136 511 -107 l 511 -208 q 408 -390 511 -326 q 387 -397 401 -397 q 362 -386 372 -397 q 351 -358 351 -375 q 371 -328 351 -340 q 416 -288 399 -312 q 433 -212 433 -264 l 429 -212 q 379 -192 400 -212 q 358 -143 358 -172 l 358 -136 q 379 -86 358 -107 q 429 -65 400 -65 l 442 -65 m 428 106 q 671 265 671 106 q 578 372 671 332 q 484 402 538 389 q 376 431 431 415 q 267 465 321 446 q 172 515 214 485 q 81 699 81 585 q 172 899 81 821 q 440 983 272 983 q 717 938 592 983 q 756 882 756 924 q 741 842 756 861 q 709 824 726 824 q 661 835 692 824 q 454 867 571 867 q 278 826 347 867 q 207 708 207 785 q 299 589 207 629 q 393 557 340 569 q 501 531 446 544 q 610 498 557 517 q 704 449 663 479 q 796 257 796 382 q 700 63 796 138 q 440 -14 601 -14 q 110 53 264 -14 q 83 75 94 60 q 71 112 71 90 q 86 151 71 133 q 122 168 101 168 q 172 155 142 168 q 269 124 201 142 q 428 106 338 106 z "},"ș":{"ha":667,"x_min":67,"x_max":611,"o":"m 347 -65 q 396 -86 375 -65 q 417 -136 417 -107 l 417 -208 q 314 -390 417 -326 q 292 -397 307 -397 q 267 -386 278 -397 q 257 -358 257 -375 q 276 -328 257 -340 q 322 -288 304 -312 q 339 -212 339 -264 l 335 -212 q 285 -192 306 -212 q 264 -143 264 -172 l 264 -136 q 285 -86 264 -107 q 335 -65 306 -65 l 347 -65 m 335 103 q 489 201 489 103 q 458 248 489 232 q 381 276 428 264 q 281 302 335 289 q 180 339 226 315 q 103 401 133 363 q 72 494 72 439 q 89 590 72 550 q 139 660 106 631 q 343 722 213 722 q 544 688 447 722 q 574 665 564 681 q 585 631 585 650 q 569 596 585 613 q 538 579 553 579 q 500 586 522 579 q 354 607 433 607 q 234 579 275 607 q 193 513 193 551 q 224 455 193 474 q 301 424 256 436 q 402 399 347 411 q 503 364 457 386 q 611 192 611 308 q 544 47 611 103 q 343 -14 472 -14 q 90 49 203 -14 q 67 90 67 65 q 82 133 67 115 q 115 150 97 150 q 158 139 133 150 q 335 103 239 103 z "},"Ț":{"ha":846,"x_min":18,"x_max":828,"o":"m 429 -65 q 478 -86 457 -65 q 499 -136 499 -107 l 499 -208 q 396 -390 499 -326 q 374 -397 389 -397 q 349 -386 360 -397 q 339 -358 339 -375 q 358 -328 339 -340 q 403 -288 386 -312 q 421 -212 421 -264 l 417 -212 q 367 -192 388 -212 q 346 -143 346 -172 l 346 -136 q 367 -86 346 -107 q 417 -65 388 -65 l 429 -65 m 768 969 q 810 952 793 969 q 828 910 828 935 q 810 868 828 885 q 768 851 793 851 l 486 851 l 486 56 q 467 11 486 29 q 422 -7 449 -7 q 378 11 396 -7 q 360 56 360 29 l 360 851 l 76 851 q 35 868 51 851 q 18 910 18 885 q 35 952 18 935 q 76 969 51 969 l 768 969 z "},"ț":{"ha":532,"x_min":29,"x_max":504,"o":"m 272 -65 q 321 -86 300 -65 q 342 -136 342 -107 l 342 -208 q 239 -390 342 -326 q 217 -397 232 -397 q 192 -386 203 -397 q 182 -358 182 -375 q 201 -328 182 -340 q 247 -288 229 -312 q 264 -212 264 -264 l 260 -212 q 210 -192 231 -212 q 189 -143 189 -172 l 189 -136 q 210 -86 189 -107 q 260 -65 231 -65 l 272 -65 m 367 97 q 386 97 367 97 q 420 103 404 97 q 455 110 436 110 q 489 96 474 110 q 504 54 504 82 q 475 14 504 26 q 374 -14 417 -14 q 297 -10 332 -14 q 231 14 263 -6 q 154 169 154 58 l 154 600 l 56 600 q 29 626 29 600 q 42 650 29 639 l 231 835 q 254 847 243 847 q 273 839 265 847 q 281 819 281 831 l 281 708 l 438 708 q 476 693 461 708 q 492 654 492 678 q 476 615 492 631 q 438 600 461 600 l 281 600 l 281 181 q 313 108 281 128 q 367 97 331 97 z "},"ȷ":{"ha":357,"x_min":-64,"x_max":242,"o":"m -11 -218 l 31 -222 q 88 -211 74 -222 q 115 -140 115 -193 l 115 650 q 133 696 115 678 q 178 714 151 714 q 224 696 206 714 q 242 650 242 678 l 242 -143 q 144 -319 242 -278 q 60 -333 110 -333 q -27 -322 10 -333 q -64 -271 -64 -310 q -49 -234 -64 -250 q -11 -218 -35 -218 z "},"ˆ":{"ha":568,"x_min":94,"x_max":469,"o":"m 458 854 q 469 827 469 843 q 458 799 469 811 q 429 786 446 786 q 403 796 413 786 l 282 899 l 161 796 q 135 786 151 786 q 106 799 118 786 q 94 819 94 811 q 94 835 94 826 q 106 854 94 843 l 200 951 q 256 979 228 979 l 308 979 q 364 951 336 979 l 458 854 z "},"ˇ":{"ha":543,"x_min":94,"x_max":469,"o":"m 458 911 l 364 814 q 308 786 336 786 l 256 786 q 200 814 228 786 l 106 911 q 94 938 94 922 q 106 967 94 954 q 135 979 118 979 q 161 969 151 979 l 282 867 l 403 969 q 429 979 413 979 q 458 967 446 979 q 469 938 469 954 q 458 911 469 922 z "},"˘":{"ha":535,"x_min":68,"x_max":465,"o":"m 267 881 q 383 949 351 881 q 419 975 396 975 q 453 963 442 975 q 465 935 465 950 q 461 913 465 921 q 385 830 438 860 q 267 800 333 800 q 148 830 200 800 q 72 913 96 860 q 68 935 68 921 q 80 963 68 950 q 115 975 92 975 q 151 946 138 975 q 196 899 165 917 q 267 881 226 881 z "},"˙":{"ha":317,"x_min":88,"x_max":229,"o":"m 158 940 q 208 919 188 940 q 229 869 229 899 q 208 819 229 840 q 158 799 188 799 q 108 819 129 799 q 88 869 88 840 q 108 919 88 899 q 158 940 129 940 z "},"˚":{"ha":375,"x_min":60,"x_max":321,"o":"m 189 1026 q 241 1016 217 1026 q 283 989 265 1006 q 321 896 321 950 q 283 803 321 842 q 190 765 244 765 q 98 803 136 765 q 60 896 60 842 q 98 988 60 950 q 189 1026 136 1026 m 190 828 q 238 848 218 828 q 258 896 258 868 q 238 944 258 924 q 190 964 218 964 q 142 944 163 964 q 122 896 122 924 q 142 848 122 868 q 190 828 163 828 z "},"˛":{"ha":488,"x_min":96,"x_max":360,"o":"m 197 -139 q 268 -204 197 -204 q 294 -201 283 -204 q 315 -196 306 -199 q 329 -193 325 -193 q 360 -224 360 -193 q 293 -272 360 -253 q 219 -282 264 -282 q 135 -251 175 -282 q 96 -165 96 -221 q 244 0 96 -60 l 353 0 q 211 -92 250 -35 q 197 -139 197 -112 z "},"˜":{"ha":600,"x_min":76,"x_max":525,"o":"m 493 958 q 525 928 522 958 q 493 839 525 879 q 408 796 457 796 q 319 819 367 796 q 247 852 272 842 q 197 863 221 863 q 140 818 160 863 q 108 793 133 793 q 86 802 96 793 q 76 828 76 811 q 85 869 76 846 q 108 911 93 892 q 193 957 140 957 q 250 947 224 957 q 302 924 276 936 q 353 902 328 913 q 404 892 379 892 q 440 901 429 892 q 457 925 451 911 q 493 958 469 958 z "},"˝":{"ha":554,"x_min":67,"x_max":458,"o":"m 147 976 q 189 1003 161 1003 q 244 951 244 1003 q 231 917 244 932 l 135 803 q 105 788 122 788 q 77 798 88 788 q 67 821 67 808 q 76 851 67 842 l 147 976 m 361 976 q 403 1003 375 1003 q 458 951 458 1003 q 444 917 458 932 l 349 803 q 319 788 336 788 q 291 798 301 788 q 281 821 281 808 q 290 851 281 842 l 361 976 z "},"Ω":{"ha":1097,"x_min":75,"x_max":1022,"o":"m 1001 513 q 828 108 1001 251 l 968 108 q 1007 93 992 108 q 1022 54 1022 78 q 1007 15 1022 31 q 968 0 992 0 l 711 0 q 665 19 685 0 q 646 58 646 38 q 677 119 646 100 q 745 167 708 138 q 814 242 782 196 q 888 497 888 349 q 797 747 888 647 q 549 857 701 857 q 300 747 396 857 q 210 497 210 647 q 283 242 210 349 q 419 119 333 171 q 451 69 451 100 q 432 19 451 38 q 386 0 413 0 l 129 0 q 90 15 106 0 q 75 54 75 31 q 90 93 75 78 q 129 108 106 108 l 269 108 q 96 513 96 251 q 126 681 96 597 q 215 833 157 765 q 358 942 274 900 q 548 983 442 983 q 738 942 654 983 q 881 833 822 900 q 970 681 939 765 q 1001 513 1001 597 z "},"π":{"ha":881,"x_min":22,"x_max":856,"o":"m 800 708 q 840 692 824 708 q 856 653 856 676 q 840 614 856 629 q 800 599 824 599 l 717 599 l 717 53 q 699 10 717 28 q 657 -7 682 -7 q 615 10 632 -7 q 597 53 597 28 l 597 599 l 353 599 q 269 38 344 308 q 248 6 264 18 q 210 -7 232 -7 q 169 10 188 -7 q 150 46 150 26 q 165 106 150 65 q 195 209 181 146 q 217 336 210 272 q 233 599 225 403 l 203 599 q 117 592 140 599 q 67 581 81 581 q 38 596 54 581 q 22 628 22 611 q 50 675 22 660 q 203 708 113 708 l 800 708 z "},"–":{"ha":950,"x_min":96,"x_max":854,"o":"m 797 446 q 838 429 821 446 q 854 389 854 413 q 838 349 854 365 q 797 333 821 333 l 151 333 q 112 349 128 333 q 96 389 96 365 q 112 429 96 413 q 151 446 128 446 l 797 446 z "},"—":{"ha":1238,"x_min":96,"x_max":1142,"o":"m 1085 446 q 1125 429 1108 446 q 1142 389 1142 413 q 1125 349 1142 365 q 1085 333 1108 333 l 151 333 q 112 349 128 333 q 96 389 96 365 q 112 429 96 413 q 151 446 128 446 l 1085 446 z "},"‘":{"ha":354,"x_min":92,"x_max":269,"o":"m 169 663 q 115 685 138 663 q 92 740 92 708 l 92 822 q 128 953 92 896 q 206 1025 156 994 q 230 1032 213 1032 q 258 1019 247 1032 q 269 988 269 1007 q 249 956 269 968 q 198 910 218 938 q 178 826 178 883 l 183 826 q 238 803 215 826 q 261 749 261 781 l 261 740 q 238 685 261 708 q 183 663 215 663 l 169 663 z "},"’":{"ha":331,"x_min":88,"x_max":265,"o":"m 188 1032 q 242 1009 219 1032 q 265 954 265 986 l 265 872 q 228 742 265 799 q 151 669 201 700 q 127 663 144 663 q 99 675 110 663 q 88 707 88 688 q 108 739 88 726 q 159 784 139 757 q 179 868 179 811 l 174 868 q 119 891 142 868 q 96 946 96 914 l 96 954 q 119 1009 96 986 q 174 1032 142 1032 l 188 1032 z "},"‚":{"ha":361,"x_min":88,"x_max":265,"o":"m 188 160 q 242 137 219 160 q 265 82 265 114 l 265 0 q 228 -131 265 -74 q 151 -203 201 -172 q 127 -210 144 -210 q 99 -197 110 -210 q 88 -165 88 -185 q 108 -133 88 -146 q 159 -88 139 -115 q 179 -4 179 -61 l 174 -4 q 119 19 142 -4 q 96 74 96 42 l 96 82 q 119 137 96 114 q 174 160 142 160 l 188 160 z "},"“":{"ha":607,"x_min":92,"x_max":521,"o":"m 421 663 q 366 685 389 663 q 343 740 343 708 l 343 822 q 381 953 343 896 q 457 1025 407 994 q 481 1032 464 1032 q 510 1019 499 1032 q 521 988 521 1007 q 500 956 521 968 q 449 910 469 938 q 429 826 429 883 l 435 826 q 490 803 467 826 q 513 749 513 781 l 513 740 q 490 685 513 708 q 435 663 467 663 l 421 663 m 169 663 q 115 685 138 663 q 92 740 92 708 l 92 822 q 128 953 92 896 q 206 1025 156 994 q 230 1032 213 1032 q 258 1019 247 1032 q 269 988 269 1007 q 249 956 269 968 q 198 910 218 938 q 178 826 178 883 l 183 826 q 238 803 215 826 q 261 749 261 781 l 261 740 q 238 685 261 708 q 183 663 215 663 l 169 663 z "},"”":{"ha":583,"x_min":88,"x_max":517,"o":"m 188 1032 q 242 1009 219 1032 q 265 954 265 986 l 265 872 q 228 742 265 799 q 151 669 201 700 q 127 663 144 663 q 99 675 110 663 q 88 707 88 688 q 108 739 88 726 q 159 784 139 757 q 179 868 179 811 l 174 868 q 119 891 142 868 q 96 946 96 914 l 96 954 q 119 1009 96 986 q 174 1032 142 1032 l 188 1032 m 439 1032 q 494 1009 471 1032 q 517 954 517 986 l 517 872 q 481 742 517 799 q 403 669 453 700 q 378 663 396 663 q 350 675 361 663 q 339 707 339 688 q 360 739 339 726 q 410 784 390 757 q 431 868 431 811 l 425 868 q 370 891 393 868 q 347 946 347 914 l 347 954 q 370 1009 347 986 q 425 1032 393 1032 l 439 1032 z "},"„":{"ha":614,"x_min":88,"x_max":517,"o":"m 188 160 q 242 137 219 160 q 265 82 265 114 l 265 0 q 228 -131 265 -74 q 151 -203 201 -172 q 127 -210 144 -210 q 99 -197 110 -210 q 88 -165 88 -185 q 108 -133 88 -146 q 159 -88 139 -115 q 179 -4 179 -61 l 174 -4 q 119 19 142 -4 q 96 74 96 42 l 96 82 q 119 137 96 114 q 174 160 142 160 l 188 160 m 439 160 q 494 137 471 160 q 517 82 517 114 l 517 0 q 481 -131 517 -74 q 403 -203 453 -172 q 378 -210 396 -210 q 350 -197 361 -210 q 339 -165 339 -185 q 360 -133 339 -146 q 410 -88 390 -115 q 431 -4 431 -61 l 425 -4 q 370 19 393 -4 q 347 74 347 42 l 347 82 q 370 137 347 114 q 425 160 393 160 l 439 160 z "},"†":{"ha":701,"x_min":49,"x_max":654,"o":"m 579 674 q 654 631 654 674 q 579 588 654 588 l 525 588 q 407 601 490 588 q 388 597 396 604 q 383 572 381 589 q 389 535 386 556 q 396 460 396 483 l 381 -54 q 351 -129 381 -129 q 322 -54 322 -129 l 307 460 q 319 578 307 511 q 315 597 322 589 q 296 601 307 604 q 178 588 213 588 l 124 588 q 49 631 49 588 q 124 674 49 674 l 178 674 q 296 661 221 674 q 315 666 307 658 q 319 685 322 674 q 306 803 306 768 l 306 860 q 328 926 306 906 q 351 935 338 935 q 388 906 374 935 q 397 860 397 886 l 397 803 q 383 685 397 768 q 388 666 381 674 q 407 661 396 658 q 525 674 482 674 l 579 674 z "},"‡":{"ha":738,"x_min":67,"x_max":672,"o":"m 597 217 q 672 174 672 217 q 597 131 672 131 l 543 131 q 425 143 500 131 q 406 138 414 146 q 401 119 399 131 q 415 1 415 36 l 415 -56 q 392 -122 415 -99 q 369 -131 383 -131 q 325 -78 335 -131 q 324 -56 324 -65 l 324 1 q 338 119 324 36 q 333 138 340 131 q 314 143 325 146 q 196 131 239 131 l 142 131 q 67 174 67 131 q 142 217 67 217 l 196 217 q 314 203 231 217 q 333 208 325 200 q 337 240 340 215 q 331 297 333 265 q 325 403 325 361 q 338 579 325 463 q 333 598 340 590 q 314 603 325 606 q 196 589 231 589 l 142 589 q 67 632 67 589 q 142 675 67 675 l 196 675 q 314 663 239 675 q 333 667 325 660 q 338 686 340 675 q 324 804 324 769 l 324 861 q 347 928 324 907 q 369 936 356 936 q 406 908 392 936 q 415 861 415 888 l 415 804 q 401 686 415 769 q 406 667 399 675 q 425 663 414 660 q 543 675 500 675 l 597 675 q 672 632 672 675 q 597 589 672 589 l 543 589 q 425 603 508 589 q 406 598 414 606 q 401 565 399 590 q 407 508 404 540 q 414 403 414 428 q 409 319 414 372 q 401 240 404 265 q 406 208 399 215 q 425 203 414 200 q 543 217 508 217 l 597 217 z "},"•":{"ha":524,"x_min":78,"x_max":446,"o":"m 261 731 q 333 716 300 731 q 392 676 367 701 q 446 546 446 622 q 392 415 446 469 q 263 361 338 361 q 132 415 186 361 q 78 546 78 469 q 132 676 78 622 q 261 731 186 731 z "},"…":{"ha":1344,"x_min":96,"x_max":1247,"o":"m 188 160 q 242 137 219 160 q 265 82 265 114 l 265 74 q 242 19 265 42 q 188 -4 219 -4 l 174 -4 q 119 19 142 -4 q 96 74 96 42 l 96 82 q 119 137 96 114 q 174 160 142 160 l 188 160 m 681 160 q 735 137 713 160 q 758 82 758 114 l 758 74 q 735 19 758 42 q 681 -4 713 -4 l 667 -4 q 612 19 635 -4 q 589 74 589 42 l 589 82 q 612 137 589 114 q 667 160 635 160 l 681 160 m 1169 160 q 1224 137 1201 160 q 1247 82 1247 114 l 1247 74 q 1224 19 1247 42 q 1169 -4 1201 -4 l 1156 -4 q 1101 19 1124 -4 q 1078 74 1078 42 l 1078 82 q 1101 137 1078 114 q 1156 160 1124 160 l 1169 160 z "},"‹":{"ha":524,"x_min":75,"x_max":421,"o":"m 408 118 q 421 81 421 103 q 406 43 421 58 q 365 28 390 28 q 328 43 340 28 l 100 294 q 75 354 75 319 q 100 414 75 389 l 328 665 q 365 681 340 681 q 406 665 390 681 q 421 627 421 650 q 408 590 421 604 l 186 354 l 408 118 z "},"›":{"ha":524,"x_min":103,"x_max":449,"o":"m 158 28 q 146 28 158 28 q 118 43 133 28 q 103 81 103 58 q 115 118 103 103 l 338 354 l 115 590 q 103 627 103 604 q 118 665 103 650 q 158 681 133 681 q 196 665 183 681 l 424 414 q 449 354 449 389 q 424 294 449 319 l 196 43 q 158 28 183 28 z "},"⁄":{"ha":278,"x_min":-194,"x_max":474,"o":"m -108 -14 q -144 -33 -121 -33 q -181 -20 -167 -33 q -194 9 -194 -7 q -187 39 -194 25 l 388 986 q 423 1006 400 1006 q 460 992 446 1006 q 474 963 474 979 q 467 933 474 947 l -108 -14 z "},"€":{"ha":947,"x_min":58,"x_max":885,"o":"m 179 485 q 185 550 179 517 l 108 550 q 73 565 88 550 q 58 600 58 579 q 73 635 58 621 q 108 650 88 650 l 207 650 q 369 889 253 797 q 650 983 489 983 q 853 939 761 983 q 885 894 885 922 q 868 849 885 865 q 836 833 851 833 q 792 842 815 833 q 668 864 738 864 q 551 849 599 864 q 464 807 504 835 q 339 650 381 749 l 738 650 q 773 635 758 650 q 788 601 788 621 q 773 565 788 581 q 738 550 758 550 l 310 550 q 306 484 306 518 q 310 419 306 450 l 668 419 q 704 404 689 419 q 719 367 719 389 q 706 332 719 346 q 668 318 692 318 l 339 318 q 463 163 381 219 q 650 106 546 106 q 801 129 733 106 q 833 136 815 136 q 868 120 851 136 q 885 75 885 104 q 853 31 885 46 q 664 -14 761 -14 q 496 11 567 -14 q 369 81 425 36 q 207 318 251 174 l 108 318 q 73 333 88 318 q 58 368 58 347 q 73 404 58 389 q 108 419 88 419 l 185 419 q 179 485 179 450 z "},"™":{"ha":1324,"x_min":79,"x_max":1197,"o":"m 900 538 l 1061 936 q 1115 972 1078 972 l 1139 972 q 1181 955 1164 972 q 1197 914 1197 938 l 1197 485 q 1185 453 1197 465 q 1153 440 1172 440 q 1121 453 1133 440 q 1108 485 1108 465 l 1108 849 l 954 475 q 900 440 940 440 q 846 475 860 440 l 692 849 l 692 485 q 679 453 692 465 q 647 440 667 440 q 615 453 628 440 q 603 485 603 465 l 603 914 q 619 955 603 938 q 661 972 636 972 l 685 972 q 739 936 722 972 l 900 538 m 486 969 q 515 958 503 969 q 526 929 526 946 q 515 901 526 913 q 486 889 503 889 l 346 889 l 346 483 q 333 452 346 464 q 301 440 321 440 q 270 452 282 440 q 258 483 258 464 l 258 889 l 119 889 q 91 901 103 889 q 79 929 79 913 q 91 958 79 946 q 119 969 103 969 l 486 969 z "},"Ω":{"ha":1097,"x_min":75,"x_max":1022,"o":"m 1001 513 q 828 108 1001 251 l 968 108 q 1007 93 992 108 q 1022 54 1022 78 q 1007 15 1022 31 q 968 0 992 0 l 711 0 q 665 19 685 0 q 646 58 646 38 q 677 119 646 100 q 745 167 708 138 q 814 242 782 196 q 888 497 888 349 q 797 747 888 647 q 549 857 701 857 q 300 747 396 857 q 210 497 210 647 q 283 242 210 349 q 419 119 333 171 q 451 69 451 100 q 432 19 451 38 q 386 0 413 0 l 129 0 q 90 15 106 0 q 75 54 75 31 q 90 93 75 78 q 129 108 106 108 l 269 108 q 96 513 96 251 q 126 681 96 597 q 215 833 157 765 q 358 942 274 900 q 548 983 442 983 q 738 942 654 983 q 881 833 822 900 q 970 681 939 765 q 1001 513 1001 597 z "},"∂":{"ha":951,"x_min":58,"x_max":864,"o":"m 736 504 q 742 603 742 551 q 728 714 742 654 q 682 822 714 774 q 474 928 611 928 q 331 910 389 928 q 305 907 322 907 q 272 923 288 907 q 256 960 256 939 q 292 1014 256 997 q 483 1047 382 1047 q 655 1010 585 1047 q 772 911 725 972 q 864 601 864 788 q 747 160 864 322 q 393 -14 621 -14 q 133 86 225 -14 q 58 289 58 171 q 164 532 58 436 q 444 631 274 631 q 681 551 567 631 q 736 504 713 529 m 414 97 q 536 126 481 97 q 628 197 592 154 q 718 392 689 269 q 608 487 676 447 q 468 526 540 526 q 346 511 396 526 q 261 467 296 496 q 185 301 185 404 q 239 161 185 217 q 414 97 299 97 z "},"∆":{"ha":1001,"x_min":94,"x_max":908,"o":"m 897 147 q 908 97 908 118 q 878 27 908 54 q 806 0 849 0 l 197 0 q 124 27 154 0 q 94 97 94 54 q 106 147 94 118 l 404 897 q 501 969 432 969 q 599 897 571 969 l 897 147 m 800 99 l 501 847 l 203 99 l 800 99 z "},"∏":{"ha":1029,"x_min":50,"x_max":979,"o":"m 919 969 q 962 952 944 969 q 979 910 979 935 q 962 867 979 885 q 919 850 944 850 l 817 850 l 817 -100 q 799 -142 817 -125 q 757 -160 782 -160 q 715 -142 732 -160 q 697 -100 697 -125 l 697 850 l 332 850 l 332 -100 q 315 -142 332 -125 q 272 -160 297 -160 q 230 -142 247 -160 q 213 -100 213 -125 l 213 850 l 110 850 q 67 867 85 850 q 50 910 50 885 q 67 952 50 935 q 110 969 85 969 l 919 969 z "},"∑":{"ha":876,"x_min":57,"x_max":819,"o":"m 144 -143 q 83 -117 108 -143 q 57 -62 57 -90 q 83 10 57 -24 l 461 414 l 83 818 q 57 885 57 851 q 83 944 57 918 q 144 971 108 971 l 758 971 q 801 953 783 971 q 819 910 819 935 q 801 867 819 885 q 758 850 783 850 l 213 850 l 561 482 q 588 414 588 453 q 561 346 588 375 l 213 -22 l 758 -22 q 801 -40 783 -22 q 819 -82 819 -57 q 801 -125 819 -107 q 758 -143 783 -143 l 144 -143 z "},"−":{"ha":989,"x_min":101,"x_max":888,"o":"m 831 515 q 871 499 854 515 q 888 458 888 482 q 871 419 888 435 q 831 403 854 403 l 157 403 q 117 419 133 403 q 101 458 101 435 q 117 499 101 482 q 157 515 133 515 l 831 515 z "},"√":{"ha":861,"x_min":10,"x_max":871,"o":"m 833 969 q 860 958 849 969 q 871 932 871 947 q 860 906 871 917 q 833 896 849 896 l 710 896 l 439 47 q 415 13 432 26 q 375 0 397 0 l 369 0 q 304 51 324 0 l 146 483 l 68 453 q 47 449 60 449 q 22 461 33 449 q 10 490 10 474 q 19 514 10 506 q 43 529 28 522 l 157 575 q 186 581 171 581 q 231 540 217 581 l 369 147 l 625 914 q 690 969 642 969 l 833 969 z "},"∞":{"ha":1338,"x_min":90,"x_max":1247,"o":"m 787 567 q 809 583 787 567 q 877 617 832 600 q 990 635 922 635 q 1110 607 1058 635 q 1192 538 1161 579 q 1247 354 1247 461 q 1192 171 1247 247 q 979 74 1121 74 q 728 199 835 74 q 671 268 697 233 l 667 268 q 556 144 604 182 q 369 74 458 74 q 228 101 279 74 q 146 171 176 129 q 90 354 90 247 q 146 538 90 461 q 358 635 217 635 q 611 510 501 635 q 667 440 642 475 l 671 440 q 787 567 742 533 m 809 245 q 824 232 809 245 q 878 199 839 218 q 963 181 917 181 q 1041 196 1008 181 q 1094 236 1074 211 q 1136 354 1136 283 q 1094 472 1136 425 q 965 528 1047 528 q 808 464 882 528 q 757 407 779 438 q 718 354 735 376 q 757 302 735 332 q 809 245 779 272 m 375 181 q 460 199 421 181 q 528 244 499 218 q 619 354 571 283 q 533 460 568 429 q 372 528 456 528 q 243 472 290 528 q 201 354 201 425 q 243 236 201 283 q 375 181 290 181 z "},"∫":{"ha":515,"x_min":1,"x_max":514,"o":"m 51 -99 l 81 -100 q 139 -87 115 -100 q 165 -22 163 -75 l 232 924 q 279 1051 236 1000 q 417 1103 322 1103 q 499 1085 483 1103 q 514 1049 514 1068 q 499 1014 514 1029 q 464 999 483 999 l 436 1000 q 378 987 401 1000 q 350 921 354 974 l 285 -25 q 181 -190 275 -151 q 117 -204 147 -204 q 47 -200 69 -204 q 1 -149 1 -192 q 15 -114 1 -129 q 51 -99 28 -99 z "},"≈":{"ha":938,"x_min":115,"x_max":826,"o":"m 782 618 q 792 618 782 618 q 815 606 803 618 q 826 583 826 594 q 824 564 826 572 q 651 432 778 432 q 458 483 574 432 q 372 520 414 504 q 289 536 331 536 q 189 465 214 536 q 159 440 179 440 q 127 452 139 440 q 115 475 115 464 q 119 494 115 486 q 290 626 176 626 q 483 575 368 626 q 569 538 528 554 q 651 522 611 522 q 750 590 726 522 q 782 618 761 618 m 782 361 q 792 361 782 361 q 815 349 803 361 q 826 326 826 338 q 824 307 826 315 q 651 175 778 175 q 458 228 574 175 q 372 263 414 247 q 289 279 331 279 q 189 208 214 279 q 159 183 179 183 q 127 195 139 183 q 115 218 115 207 q 119 238 115 229 q 290 369 176 369 q 483 317 368 369 q 569 281 528 297 q 651 265 611 265 q 750 333 726 265 q 782 361 761 361 z "},"≠":{"ha":956,"x_min":82,"x_max":868,"o":"m 136 561 q 97 576 113 561 q 82 615 82 592 q 97 654 82 639 q 136 669 113 669 l 558 669 l 678 858 q 709 876 689 876 q 742 866 729 876 q 754 840 754 856 q 747 811 754 824 l 657 669 l 814 669 q 853 654 838 669 q 868 615 868 639 q 853 576 868 592 q 814 561 838 561 l 588 561 l 460 358 l 814 358 q 853 343 838 358 q 868 304 868 328 q 853 265 868 281 q 814 250 838 250 l 390 250 l 268 56 q 237 38 257 38 q 204 48 217 38 q 192 74 192 58 q 199 103 192 90 l 292 250 l 136 250 q 97 265 113 250 q 82 304 82 281 q 97 343 82 328 q 136 358 113 358 l 361 358 l 489 561 l 136 561 z "},"≤":{"ha":875,"x_min":81,"x_max":769,"o":"m 768 209 q 768 199 768 209 q 752 173 768 189 q 718 157 736 157 q 690 161 700 157 l 136 410 q 86 482 86 433 l 86 493 q 136 565 86 542 l 690 814 q 718 818 700 818 q 752 802 736 818 q 768 767 768 786 q 731 710 768 725 l 231 488 l 731 265 q 758 244 747 258 q 768 209 768 229 m 718 101 q 754 86 739 101 q 769 50 769 71 q 754 15 769 29 q 718 0 739 0 l 131 0 q 95 15 110 0 q 81 50 81 29 q 95 86 81 71 q 131 101 110 101 l 718 101 z "},"≥":{"ha":875,"x_min":106,"x_max":794,"o":"m 185 161 q 156 157 174 157 q 123 173 139 157 q 107 208 107 189 q 144 265 107 250 l 644 488 l 144 710 q 117 731 128 717 q 107 766 107 746 q 123 802 107 786 q 156 818 139 818 q 185 814 174 818 l 739 565 q 789 493 789 542 l 789 482 q 739 410 789 433 l 185 161 m 744 101 q 780 86 765 101 q 794 50 794 71 q 780 15 794 29 q 744 0 765 0 l 157 0 q 121 15 136 0 q 106 50 106 29 q 121 86 106 71 q 157 101 136 101 l 744 101 z "},"◊":{"ha":869,"x_min":56,"x_max":814,"o":"m 429 -146 q 358 -107 381 -146 l 67 372 q 56 415 56 392 q 67 458 56 439 l 358 938 q 429 976 381 976 l 440 976 q 511 938 489 976 l 803 458 q 814 415 814 439 q 803 372 814 392 l 511 -107 q 440 -146 489 -146 l 429 -146 m 706 415 l 435 871 l 164 415 l 435 -40 l 706 415 z "},"ﬀ":{"ha":1075,"x_min":26,"x_max":1071,"o":"m 1019 899 l 950 907 q 867 883 897 907 q 836 785 836 858 l 836 708 l 1010 708 q 1049 693 1033 708 q 1064 654 1064 678 q 1049 615 1064 631 q 1010 600 1033 600 l 836 600 l 836 56 q 818 11 836 29 q 773 -7 800 -7 q 728 11 746 -7 q 710 56 710 29 l 710 600 l 289 600 l 289 56 q 271 11 289 29 q 226 -7 253 -7 q 181 11 199 -7 q 163 56 163 29 l 163 600 l 81 600 q 42 615 57 600 q 26 654 26 631 q 42 693 26 678 q 81 708 57 708 l 163 708 l 163 789 q 231 975 163 910 q 371 1028 286 1028 q 492 1000 436 1028 q 524 957 524 982 q 509 915 524 932 q 472 899 494 899 l 403 907 q 319 883 350 907 q 289 785 289 858 l 289 708 l 710 708 l 710 789 q 778 975 710 910 q 918 1028 833 1028 q 1039 1000 983 1028 q 1071 957 1071 982 q 1056 915 1071 932 q 1019 899 1042 899 z "},"ﬁ":{"ha":890,"x_min":26,"x_max":788,"o":"m 472 899 l 403 907 q 319 883 350 907 q 289 785 289 858 l 289 708 l 715 708 q 758 688 742 706 q 775 644 775 671 l 775 56 q 757 11 775 29 q 712 -7 739 -7 q 667 11 685 -7 q 649 56 649 29 l 649 600 l 289 600 l 289 56 q 271 11 289 29 q 226 -7 253 -7 q 181 11 199 -7 q 163 56 163 29 l 163 600 l 81 600 q 42 615 57 600 q 26 654 26 631 q 42 693 26 678 q 81 708 57 708 l 163 708 l 163 789 q 231 975 163 910 q 371 1028 286 1028 q 492 1000 436 1028 q 524 957 524 982 q 509 915 524 932 q 472 899 494 899 m 788 924 q 767 874 788 894 q 717 853 746 853 l 708 853 q 658 874 679 853 q 638 924 638 894 l 638 929 q 658 979 638 958 q 708 1000 679 1000 l 717 1000 q 767 979 746 1000 q 788 929 788 958 l 788 924 z "},"ﬂ":{"ha":894,"x_min":26,"x_max":774,"o":"m 472 899 l 403 907 q 319 883 350 907 q 289 785 289 858 l 289 708 l 463 708 q 501 693 486 708 q 517 654 517 678 q 501 615 517 631 q 463 600 486 600 l 289 600 l 289 56 q 271 11 289 29 q 226 -7 253 -7 q 181 11 199 -7 q 163 56 163 29 l 163 600 l 81 600 q 42 615 57 600 q 26 654 26 631 q 42 693 26 678 q 81 708 57 708 l 163 708 l 163 789 q 231 975 163 910 q 371 1028 286 1028 q 492 1000 436 1028 q 524 957 524 982 q 509 915 524 932 q 472 899 494 899 m 647 957 q 665 1003 647 985 q 710 1021 683 1021 q 756 1003 738 1021 q 774 957 774 985 l 774 56 q 756 11 774 29 q 710 -7 738 -7 q 665 11 683 -7 q 647 56 647 29 l 647 957 z "},"ﬃ":{"ha":1438,"x_min":26,"x_max":1335,"o":"m 1019 899 l 950 907 q 867 883 897 907 q 836 785 836 858 l 836 708 l 1258 708 q 1304 690 1286 708 q 1322 644 1322 672 l 1322 56 q 1304 11 1322 29 q 1259 -7 1286 -7 q 1214 11 1232 -7 q 1196 56 1196 29 l 1196 600 l 836 600 l 836 56 q 818 11 836 29 q 773 -7 800 -7 q 728 11 746 -7 q 710 56 710 29 l 710 600 l 289 600 l 289 56 q 271 11 289 29 q 226 -7 253 -7 q 181 11 199 -7 q 163 56 163 29 l 163 600 l 81 600 q 42 615 57 600 q 26 654 26 631 q 42 693 26 678 q 81 708 57 708 l 163 708 l 163 789 q 231 975 163 910 q 371 1028 286 1028 q 492 1000 436 1028 q 524 957 524 982 q 509 915 524 932 q 472 899 494 899 l 403 907 q 319 883 350 907 q 289 785 289 858 l 289 708 l 710 708 l 710 789 q 778 975 710 910 q 918 1028 833 1028 q 1039 1000 983 1028 q 1071 957 1071 982 q 1056 915 1071 932 q 1019 899 1042 899 m 1335 924 q 1314 874 1335 894 q 1264 853 1293 853 l 1256 853 q 1206 874 1226 853 q 1185 924 1185 894 l 1185 929 q 1206 979 1185 958 q 1256 1000 1226 1000 l 1264 1000 q 1314 979 1293 1000 q 1335 929 1335 958 l 1335 924 z "},"ﬄ":{"ha":1442,"x_min":26,"x_max":1321,"o":"m 1194 957 q 1213 1003 1194 985 q 1258 1021 1231 1021 q 1303 1003 1285 1021 q 1321 957 1321 985 l 1321 56 q 1303 11 1321 29 q 1258 -7 1285 -7 q 1213 11 1231 -7 q 1194 56 1194 29 l 1194 957 m 1019 899 l 950 907 q 867 883 897 907 q 836 785 836 858 l 836 708 l 1010 708 q 1049 693 1033 708 q 1064 654 1064 678 q 1049 615 1064 631 q 1010 600 1033 600 l 836 600 l 836 56 q 818 11 836 29 q 773 -7 800 -7 q 728 11 746 -7 q 710 56 710 29 l 710 600 l 289 600 l 289 56 q 271 11 289 29 q 226 -7 253 -7 q 181 11 199 -7 q 163 56 163 29 l 163 600 l 81 600 q 42 615 57 600 q 26 654 26 631 q 42 693 26 678 q 81 708 57 708 l 163 708 l 163 789 q 231 975 163 910 q 371 1028 286 1028 q 492 1000 436 1028 q 524 957 524 982 q 509 915 524 932 q 472 899 494 899 l 403 907 q 319 883 350 907 q 289 785 289 858 l 289 708 l 710 708 l 710 789 q 778 975 710 910 q 918 1028 833 1028 q 1039 1000 983 1028 q 1071 957 1071 982 q 1056 915 1071 932 q 1019 899 1042 899 z "},"ﬆ":{"ha":1169,"x_min":67,"x_max":1142,"o":"m 449 713 q 413 825 413 764 q 429 930 413 886 q 478 1006 446 974 q 665 1075 544 1075 q 853 994 783 1075 q 918 811 918 919 l 918 708 l 1075 708 q 1114 693 1099 708 q 1129 654 1129 678 q 1114 615 1129 631 q 1075 600 1099 600 l 918 600 l 918 181 q 950 108 918 128 q 1005 97 968 97 q 1058 103 1042 97 q 1092 110 1074 110 q 1126 96 1111 110 q 1142 54 1142 82 q 1114 14 1142 26 q 1012 -14 1054 -14 q 935 -10 969 -14 q 868 14 900 -6 q 792 169 792 58 l 792 600 l 707 600 q 668 615 683 600 q 653 654 653 631 q 668 693 653 678 q 707 708 683 708 l 792 708 l 792 825 q 711 968 792 931 q 626 982 681 982 q 525 942 571 982 q 479 837 479 901 q 501 738 479 772 q 547 689 524 703 q 585 639 585 665 q 569 596 585 613 q 538 579 553 579 q 500 586 522 579 q 354 607 433 607 q 234 579 275 607 q 193 513 193 551 q 224 455 193 474 q 301 424 256 436 q 402 399 347 411 q 503 364 457 386 q 611 192 611 308 q 544 47 611 103 q 343 -14 472 -14 q 90 49 203 -14 q 67 90 67 65 q 82 133 67 115 q 115 150 97 150 q 158 139 133 150 q 335 103 239 103 q 489 201 489 103 q 458 248 489 232 q 381 276 428 264 q 281 302 335 289 q 180 339 226 315 q 103 401 133 363 q 72 494 72 439 q 89 590 72 550 q 139 660 106 631 q 343 722 213 722 q 449 713 390 722 z "}}}
